<?xml version="1.0" standalone="no"?>
<!DOCTYPE svg PUBLIC "-//W3C//DTD SVG 1.1//EN" "http://www.w3.org/Graphics/SVG/1.1/DTD/svg11.dtd" >
<svg xmlns="http://www.w3.org/2000/svg" xmlns:xlink="http://www.w3.org/1999/xlink" version="1.1">
<metadata>
Created by FontForge 20170910 at Sat Feb  5 00:14:02 2005
 By Jimmy Wärting
(c) Ray Larabie 2005. Do not distribute. Report piracy to piracy@typodermic.com. Visit www.typodermic.com for contact info.
</metadata>
<defs>
<font id="Biondi" horiz-adv-x="751" >
  <font-face 
    font-family="Biondi"
    font-weight="400"
    font-stretch="normal"
    units-per-em="1000"
    panose-1="2 0 5 5 3 0 0 2 0 4"
    ascent="800"
    descent="-200"
    x-height="554"
    cap-height="743"
    bbox="-73 -226 2053 975"
    underline-thickness="50"
    underline-position="-100"
    unicode-range="U+000D-2212"
  />
<missing-glyph horiz-adv-x="576" 
 />
    <glyph glyph-name=".notdef" horiz-adv-x="576" 
 />
    <glyph glyph-name=".null" horiz-adv-x="0" 
 />
    <glyph glyph-name="nonmarkingreturn" horiz-adv-x="413" 
 />
    <glyph glyph-name="space" unicode=" " horiz-adv-x="413" 
 />
    <glyph glyph-name="E" unicode="E" horiz-adv-x="768" 
d="M48 743h655v-182h-29l-19 57h-427v-172h371l19 39h29v-197h-29l-19 38h-371v-196h438l19 57h29v-187h-666v29l38 19v647l-38 19v29z" />
    <glyph glyph-name="F" unicode="F" horiz-adv-x="716" 
d="M48 743h651v-182h-29l-19 57h-423v-201h368l19 38h29v-199h-29l-19 39h-368v-247l39 -19v-29h-219v29l38 19v647l-38 19v29z" />
    <glyph glyph-name="G" unicode="G" horiz-adv-x="906" 
d="M700 285h-217l-19 -38h-29v169h408v-297q-25 -35 -65.5 -60t-89 -42.5t-100.5 -25.5t-100 -8q-99 0 -181.5 27t-142.5 77.5t-93.5 121.5t-33.5 160q0 80 30 150.5t87.5 123t140.5 83t190 30.5q51 0 94 -5.5t81 -16.5t73.5 -27t70.5 -37l38 15l22 -19l-141 -167l-22 19
l9 43q-31 27 -88.5 45t-148.5 18q-68 0 -121.5 -20t-90.5 -54.5t-57 -81t-20 -97.5q0 -64 25.5 -112t69 -80t99.5 -49t118 -17q13 0 42 2.5t61.5 9t60.5 17.5t40 28v115z" />
    <glyph glyph-name="H" unicode="H" horiz-adv-x="892" 
d="M623 0v29l38 19v268h-432v-268l39 -19v-29h-219v29l38 19v647l-38 19v29h219v-29l-39 -19v-242h432v242l-38 19v29h219v-29l-38 -19v-647l38 -19v-29h-219z" />
    <glyph glyph-name="I" unicode="I" horiz-adv-x="292" 
d="M36 0v29l38 19v647l-38 19v29h218v-29l-38 -19v-647l38 -19v-29h-218z" />
    <glyph glyph-name="J" unicode="J" horiz-adv-x="672" 
d="M166 219l19 -22l-14 -41q33 -23 66.5 -33.5t63.5 -10.5q19 0 45 7t49.5 21t39.5 36t16 53v466l-38 19v29h219v-29l-39 -19v-429q0 -79 -24 -133t-63.5 -87.5t-90.5 -48t-106 -14.5q-38 0 -70.5 5.5t-61.5 15.5t-56 23.5t-56 30.5l-39 -11l-20 22z" />
    <glyph glyph-name="K" unicode="K" horiz-adv-x="879" 
d="M49 0v29l38 19v647l-38 19v29h219v-29l-39 -19v-275l330 275l-17 19v29h271v-29l-59 -19l-279 -234l325 -413l53 -18v-30h-276v29l41 14l-245 338l-144 -120v-213l39 -19v-29h-219z" />
    <glyph glyph-name="L" unicode="L" horiz-adv-x="724" 
d="M40 0v29l39 19v647l-39 19v29h219v-29l-38 -19v-565h415l20 57h28v-187h-644z" />
    <glyph glyph-name="M" unicode="M" horiz-adv-x="1092" 
d="M50 0v29l38 19v647l-38 19v29h211l284 -546l284 546h212v-29l-39 -19v-647l39 -19v-29h-213v29l39 19v483l-278 -531h-88l-277 531v-483l38 -19v-29h-212z" />
    <glyph glyph-name="N" unicode="N" horiz-adv-x="920" 
d="M49 0v29l38 19v647l-38 19v29h177l469 -545v497l-38 19v29h215v-29l-39 -19v-695h-162l-445 521v-473l38 -19v-29h-215z" />
    <glyph glyph-name="O" unicode="O" horiz-adv-x="985" 
d="M492 756q99 0 182 -31t143.5 -84.5t95 -125.5t34.5 -154q0 -85 -34.5 -155t-95 -120t-143.5 -77t-182 -27q-96 0 -179 27t-144 77t-96 120t-35 155q0 82 32.5 154t92 125.5t143.5 84.5t186 31zM492 624q-66 0 -121.5 -20.5t-96 -56t-63.5 -83.5t-23 -103q0 -52 23 -97.5
t64 -79t96.5 -53t120.5 -19.5q66 0 121 18.5t95.5 51t63.5 78t23 101.5q0 55 -22.5 103t-63 83.5t-95.5 56t-122 20.5z" />
    <glyph glyph-name="P" unicode="P" 
d="M48 0v29l38 19v647l-38 19v29h385q147 0 224.5 -57.5t77.5 -180.5q0 -61 -23.5 -108t-65.5 -78.5t-100 -47.5t-127 -16h-191v-207l39 -19v-29h-219zM432 387q36 0 67 6.5t53.5 20.5t35.5 36.5t13 54.5q0 31 -13 52.5t-35.5 35t-53.5 19.5t-67 6h-204v-231h204z" />
    <glyph glyph-name="Q" unicode="Q" horiz-adv-x="1025" 
d="M479 756q99 0 182 -31t143.5 -84.5t94.5 -125.5t34 -154q0 -74 -27 -138t-76 -113l98 -88l41 15l21 -19l-148 -161l-21 19l11 41l-122 111q-51 -23 -108 -34.5t-123 -11.5q-96 0 -179 27t-144 77t-96 120t-35 155q0 82 32 154t91.5 125.5t143.5 84.5t187 31zM479 624
q-66 0 -122 -20.5t-96 -56t-63 -83.5t-23 -103q0 -52 23 -97.5t63.5 -79t96.5 -53t121 -19.5q64 0 120 18.5t96 51t63 78t23 101.5q0 55 -22.5 103t-62.5 83.5t-95.5 56t-121.5 20.5z" />
    <glyph glyph-name="R" unicode="R" horiz-adv-x="890" 
d="M49 0v29l38 19v647l-38 19v29h455q64 0 114.5 -17t85 -47.5t53 -74.5t18.5 -99q0 -79 -43 -132.5t-112 -78.5l183 -246l52 -19v-29h-246v29l24 20l-142 206h-262v-207l39 -19v-29h-219zM477 387q34 0 63 7t50.5 22t33.5 37t12 52q0 28 -12 49t-33.5 35.5t-50.5 21.5
t-63 7h-248v-231h248z" />
    <glyph glyph-name="S" unicode="S" horiz-adv-x="760" 
d="M192 236l19 -22l-14 -40q17 -16 35 -28t39.5 -20.5t49.5 -13t68 -4.5q22 0 53.5 2.5t61.5 12t50.5 26t20.5 44.5q0 25 -17.5 43.5t-46.5 32.5t-67.5 25t-79.5 22.5t-83 24.5t-78 31q-26 12 -48.5 28t-38.5 35t-25 43t-9 54q0 58 25.5 101t68.5 70t98 40t115 13
q40 0 74.5 -3.5t67 -10.5t63.5 -17.5t64 -24.5l36 20l24 -16l-120 -184l-24 17l4 44q-40 20 -87 33.5t-101 13.5q-25 0 -54 -4.5t-53.5 -14t-40.5 -25t-16 -36.5q0 -30 29 -49.5t74 -35.5t101 -30.5t109 -35.5q36 -14 69 -31.5t57.5 -41.5t39 -55t14.5 -71
q0 -59 -29.5 -99.5t-77.5 -66.5t-106.5 -37.5t-114.5 -11.5q-91 0 -163.5 23.5t-136.5 68.5l-39 -11l-20 22z" />
    <glyph glyph-name="T" unicode="T" horiz-adv-x="755" 
d="M267 0v29l38 18v571h-230l-28 -57h-29l9 182h696l10 -182h-29l-29 57h-227v-570l38 -19v-29h-219z" />
    <glyph glyph-name="U" unicode="U" horiz-adv-x="905" 
d="M645 743h219v-29l-38 -19v-390q0 -91 -35 -153t-90 -99.5t-120.5 -53.5t-127.5 -16t-128 16t-120.5 53.5t-89.5 99.5t-35 153v390l-39 19v29h219v-29l-38 -19v-383q0 -47 16.5 -84t47 -63t73 -39.5t94.5 -13.5t94 13.5t72.5 39.5t47.5 63t17 84v383l-39 19v29z" />
    <glyph glyph-name="V" unicode="V" horiz-adv-x="883" 
d="M253 743v-29l-29 -19l221 -482l222 482l-30 19v29h237v-29l-48 -19l-340 -695h-90l-338 695l-48 19v29h243z" />
    <glyph glyph-name="W" unicode="W" horiz-adv-x="1350" 
d="M261 743v-29l-32 -19l170 -470l211 518h147l210 -518l163 470l-32 19v29h242v-29l-46 -20l-278 -694h-105l-230 543l-232 -543h-114l-279 694l-46 20v29h251z" />
    <glyph glyph-name="X" unicode="X" horiz-adv-x="957" 
d="M28 0v29l55 19l295 330l-285 316l-55 21v28h266v-28l-23 -21l203 -236l207 237l-23 19v29h251v-29l-55 -19l-286 -318l296 -329l55 -19v-29h-260v29l23 19l-216 244l-217 -244l23 -19v-29h-254z" />
    <glyph glyph-name="Y" unicode="Y" horiz-adv-x="891" 
d="M342 0v29l38 19v242l-317 405l-53 19v29h257v-29l-24 -19l210 -279l206 279l-25 19v29h247v-29l-53 -19l-306 -406v-241l39 -19v-29h-219z" />
    <glyph glyph-name="Z" unicode="Z" horiz-adv-x="797" 
d="M51 117l456 492h-388l-29 -58h-29l10 192h613l39 -98l-464 -506h420l19 58h29v-197h-649z" />
    <glyph glyph-name="one" unicode="1" horiz-adv-x="408" 
d="M148 0v29l38 19v550l-115 -43l-59 105l219 83h98v-695l39 -19v-29h-220z" />
    <glyph glyph-name="two" unicode="2" horiz-adv-x="757" 
d="M378 756q66 0 119.5 -15t92 -43t59.5 -69t21 -93q0 -66 -26.5 -114.5t-76 -93.5t-120 -91.5t-157.5 -106.5h378l19 57h29v-187h-616l-62 122l260 178q41 29 81.5 55.5t73 53.5t52.5 55t20 62q0 49 -42 73.5t-107 24.5q-54 0 -94.5 -18.5t-71.5 -43.5l18 -42l-19 -22
l-169 140l19 22l41 -8q47 46 117 75t161 29z" />
    <glyph glyph-name="three" unicode="3" horiz-adv-x="758" 
d="M171 228l23 -17l-5 -43q40 -25 95.5 -40.5t111.5 -15.5q31 0 60.5 5t52 16.5t36.5 29t14 43.5q0 39 -24.5 61.5t-64 33.5t-88.5 14t-98 3v113q50 0 96 3.5t81.5 15t57 33.5t21.5 58q0 22 -14 37.5t-36 25.5t-49 15t-54 5q-63 0 -106 -16t-78 -46l17 -42l-18 -22l-169 140
l18 22l41 -8q26 21 56 40t67 33t82 22.5t100 8.5t106.5 -12t91.5 -36.5t64.5 -63t24.5 -92.5q0 -25 -6 -50.5t-18.5 -49t-32 -43t-48.5 -33.5q29 -9 54.5 -23.5t44 -36t29.5 -51.5t11 -69q0 -48 -27.5 -87.5t-70 -67.5t-94 -43t-99.5 -15q-110 0 -186 19t-133 48l-38 -20
l-23 17z" />
    <glyph glyph-name="four" unicode="4" horiz-adv-x="759" 
d="M444 0v29l39 19v92h-429l-46 92l483 511h171v-29l-38 -19v-430h79l19 38h29v-201h-29l-19 38h-79v-92l38 -19v-29h-218zM221 265h262v287z" />
    <glyph glyph-name="five" unicode="5" horiz-adv-x="737" 
d="M110 743h539v-173h-29l-19 58h-346v-160q26 10 64 17t87 7q50 0 102 -14t93 -44.5t67.5 -78.5t26.5 -117q0 -43 -17.5 -88t-55.5 -82t-100 -61t-152 -24q-52 0 -96.5 8t-79.5 20.5t-60 26.5t-39 25l-38 -13l-22 20l149 161l21 -21l-11 -41q35 -31 79.5 -44.5t91.5 -13.5
q38 0 72 7.5t59.5 23t40.5 40.5t15 62q0 31 -14 54.5t-38.5 39t-57.5 23.5t-71 8q-55 0 -94 -11.5t-59 -28.5l-108 26v388z" />
    <glyph glyph-name="six" unicode="6" horiz-adv-x="748" 
d="M40 364q0 82 22 153.5t66.5 124.5t114 83.5t165.5 30.5q87 0 141.5 -19t86.5 -44l37 21l23 -17l-126 -179l-23 17l6 42q-26 24 -65 35.5t-79 11.5q-58 0 -99.5 -15.5t-70 -44t-43.5 -70t-19 -93.5q56 40 111.5 54t120.5 14q57 0 110.5 -13.5t95.5 -41.5t67.5 -70
t25.5 -96q0 -80 -34.5 -131.5t-84 -81t-104.5 -41t-98 -11.5q-98 0 -164.5 29t-107 80.5t-58 121t-17.5 150.5zM190 236q0 -32 18.5 -55t46.5 -38t63 -23t70 -8q37 0 69 9t55 25t36 39t13 52q0 30 -13.5 51t-37.5 34t-57 19.5t-72 6.5q-31 0 -64.5 -7t-61.5 -21t-46.5 -34.5
t-18.5 -49.5z" />
    <glyph glyph-name="seven" unicode="7" horiz-adv-x="637" 
d="M12 743h584l29 -89q-128 -144 -224.5 -309.5t-177.5 -344.5h-163q85 170 179 326t211 292h-390l-20 -57h-28v182z" />
    <glyph glyph-name="eight" unicode="8" horiz-adv-x="754" 
d="M38 200q0 71 33 121.5t93 74.5q-34 25 -59.5 63t-25.5 80q0 57 28 98.5t71.5 68t96 38.5t101.5 12q50 0 103 -12t96 -37.5t71 -64.5t28 -94q0 -25 -9 -47t-23.5 -41.5t-33 -36t-36.5 -29.5q30 -11 56 -29t45 -42t30.5 -53.5t11.5 -61.5q0 -59 -27.5 -101.5t-74.5 -70
t-108 -40.5t-126 -13q-66 0 -127.5 13t-109 39.5t-76 67.5t-28.5 97zM379 325q-31 0 -64.5 -5.5t-61.5 -18.5t-47 -33.5t-19 -49.5q0 -34 17.5 -56t45 -35t62 -18t67.5 -5q34 0 67 5.5t59.5 18.5t42.5 34t16 53q0 24 -17.5 44.5t-45 35t-60 22.5t-62.5 8zM379 632
q-31 0 -61.5 -6t-55 -18.5t-40.5 -31.5t-16 -45t17 -44.5t43 -30.5t56 -18t57 -6q26 0 55.5 6t54 18t40.5 30.5t16 44.5t-14.5 45t-38.5 31.5t-53.5 18.5t-59.5 6z" />
    <glyph glyph-name="nine" unicode="9" horiz-adv-x="749" 
d="M708 373q0 -82 -22 -153.5t-66.5 -124.5t-114 -83t-165.5 -30q-88 0 -142 18.5t-86 43.5l-37 -21l-23 17l126 179l23 -16l-6 -43q26 -24 65 -35.5t79 -11.5q116 0 169.5 53t62.5 157q-56 -40 -111.5 -54.5t-120.5 -14.5q-57 0 -110.5 17t-95.5 47.5t-67.5 75.5t-25.5 99
q0 80 34 131t83.5 79.5t107.5 40t106 11.5q101 0 167 -29.5t103.5 -81t52 -121t14.5 -150.5zM558 501q0 32 -18.5 55t-46.5 38.5t-63 23t-70 7.5q-37 0 -69 -8.5t-55 -24.5t-36 -38.5t-13 -51.5q0 -30 13.5 -53.5t37.5 -39t56.5 -24.5t72.5 -9q30 0 64 9t62 25t46.5 39
t18.5 52z" />
    <glyph glyph-name="zero" unicode="0" horiz-adv-x="829" 
d="M416 756q99 0 170 -32.5t116 -86t66.5 -123.5t21.5 -146t-23.5 -145.5t-70.5 -123t-117 -85t-163 -31.5q-101 0 -172 30.5t-116.5 83t-67 121t-21.5 144.5t23.5 147t70.5 125.5t118 88t165 33.5zM416 624q-64 0 -108.5 -26t-72.5 -65.5t-41 -85.5t-13 -85q0 -37 13 -80.5
t41 -81t72.5 -63t108.5 -25.5q62 0 105.5 25t71.5 63t41 83t13 85q0 36 -13 80.5t-41 83.5t-71.5 65.5t-105.5 26.5z" />
    <glyph glyph-name="A" unicode="A" horiz-adv-x="991" 
d="M564 743l368 -695l49 -19v-29h-249v29l30 19l-60 137h-411l-76 -137l28 -19v-29h-233v29l48 19l361 695h145zM489 595l-145 -295h290z" />
    <glyph glyph-name="D" unicode="D" horiz-adv-x="919" 
d="M49 743h382q115 0 200 -28.5t140.5 -78t82 -118t26.5 -147.5q0 -83 -32 -151t-90.5 -117t-141.5 -76t-185 -27h-382v29l38 19v647l-38 19v29zM229 618v-488h205q69 0 124.5 17t95 48.5t60.5 75t21 97.5q0 52 -19 97.5t-57 79.5t-94 53.5t-131 19.5h-205z" />
    <glyph glyph-name="period" unicode="." horiz-adv-x="246" 
d="M123 120q79 0 79 -64q0 -66 -79 -66q-81 0 -81 66q0 64 81 64z" />
    <glyph glyph-name="colon" unicode=":" horiz-adv-x="254" 
d="M127 469q78 0 78 -64q0 -65 -78 -65q-80 0 -80 65q0 64 80 64zM127 120q78 0 78 -64q0 -66 -78 -66q-80 0 -80 66q0 64 80 64z" />
    <glyph glyph-name="semicolon" unicode=";" horiz-adv-x="226" 
d="M109 121q79 0 79 -69q0 -31 -22 -63.5t-63 -64.5l-37 18q30 40 36 62q-72 0 -72 59q0 58 79 58zM109 469q79 0 79 -64q0 -33 -20.5 -49t-58.5 -16q-79 0 -79 65q0 64 79 64z" />
    <glyph glyph-name="percent" unicode="%" horiz-adv-x="804" 
d="M423 166q0 38 13.5 71t37 57.5t54.5 38.5t67 14q34 0 65 -14t54.5 -38.5t37 -57.5t13.5 -71q0 -36 -12.5 -68t-34.5 -55.5t-53.5 -38t-69.5 -14.5t-70 14.5t-54 38t-35 55.5t-13 68zM48 574q0 38 13.5 70.5t37 56.5t54 37.5t67.5 13.5q33 0 64.5 -13.5t55 -37.5t37 -56.5
t13.5 -70.5q0 -36 -12.5 -67t-35 -55t-54 -38t-68.5 -14q-39 0 -70.5 14t-53.5 38t-35 55t-13 67zM99 0l503 745h100l-507 -745h-96zM690 166q0 22 -6 43t-17.5 37t-30 25.5t-41.5 9.5q-24 0 -41.5 -9.5t-30 -25.5t-19 -37t-6.5 -43q0 -21 7.5 -41t19.5 -36t29.5 -25
t40.5 -9q21 0 39 9t30 25t19 36t7 41zM314 574q0 22 -6 42.5t-17.5 35.5t-29 23.5t-41.5 8.5q-49 0 -72.5 -32.5t-23.5 -77.5q0 -21 7 -40.5t19 -34.5t30.5 -24t39.5 -9t38 9t29.5 24t19.5 34.5t7 40.5z" />
    <glyph glyph-name="quotesingle" unicode="'" horiz-adv-x="201" 
d="M144 727l-20 -242h-51l-21 242h92z" />
    <glyph glyph-name="quotedbl" unicode="&#x22;" horiz-adv-x="311" 
d="M139 727l-20 -242h-52l-21 242h93zM264 727l-20 -242h-52l-21 242h93z" />
    <glyph glyph-name="exclam" unicode="!" horiz-adv-x="266" 
d="M133 761q27 0 44.5 -9t27.5 -26t13.5 -39t3.5 -48q0 -45 -9 -149.5t-28 -271.5h-104q-8 66 -15 133.5t-12.5 124.5t-9 99.5t-3.5 60.5q0 28 4 51t14.5 39.5t28.5 25.5t45 9zM133 120q79 0 79 -64q0 -66 -79 -66t-79 66q0 64 79 64z" />
    <glyph glyph-name="numbersign" unicode="#" horiz-adv-x="669" 
d="M30 320h118l14 91h-112l16 98h113l37 234h101l-38 -234h134l37 234h110l-38 -234h114l-17 -98h-113l-14 -91h106l-16 -100h-107l-35 -220h-110l36 220h-134l-35 -220h-101l36 220h-118zM249 320h133l14 91h-133z" />
    <glyph glyph-name="dollar" unicode="$" horiz-adv-x="665" 
d="M289 0v44q-30 0 -60 5t-63 17t-68 32.5t-73 52.5l95 67q102 -67 169 -70v186q-41 7 -79.5 22t-68 38.5t-47 55.5t-17.5 74q0 36 15.5 67.5t43.5 55.5t67 40t86 20v36h88v-36q41 -2 76.5 -11t65 -23t54 -32.5t42.5 -38.5l-84 -64q-16 17 -31 28.5t-32.5 19.5t-39 12
t-51.5 6v-172q56 -8 103 -23.5t81.5 -41t54 -61t19.5 -82.5q0 -43 -22.5 -76t-58.5 -56t-82.5 -35t-94.5 -13v-44h-88zM377 146q26 1 51 5.5t44.5 15t31.5 25.5t12 37q0 23 -13 40t-34 28t-45.5 18t-46.5 9v-178zM289 601q-21 -3 -39.5 -8t-32 -14t-21 -22.5t-7.5 -32.5
q0 -31 29 -50.5t71 -25.5v153z" />
    <glyph glyph-name="parenleft" unicode="(" horiz-adv-x="342" 
d="M26 333q0 112 18 198t48.5 149.5t69.5 105.5t80 66l69 -78q-43 -25 -74 -69.5t-51 -103.5t-29 -127.5t-9 -140.5t9 -140.5t29 -127t51 -104t74 -69.5l-69 -77q-41 24 -80 66t-69.5 105t-48.5 149t-18 198z" />
    <glyph glyph-name="parenright" unicode=")" horiz-adv-x="340" 
d="M314 333q0 -111 -18.5 -197t-48.5 -149.5t-68.5 -105.5t-79.5 -66l-69 77q43 24 73.5 69.5t51 104t29.5 127t9 140.5t-9 140.5t-29.5 127.5t-51 103.5t-73.5 69.5l69 78q41 -24 79.5 -66t68.5 -105.5t48.5 -150t18.5 -197.5z" />
    <glyph glyph-name="plus" unicode="+" horiz-adv-x="431" 
d="M11 301v83h164v150h85v-150h159v-83h-159v-144h-85v144h-164z" />
    <glyph glyph-name="hyphen" unicode="-" horiz-adv-x="475" 
d="M55 225v107h365v-107h-365z" />
    <glyph glyph-name="slash" unicode="/" horiz-adv-x="404" 
d="M121 -28h-113l277 799h111z" />
    <glyph glyph-name="equal" unicode="=" horiz-adv-x="463" 
d="M55 425h374v-90h-374v90zM55 224h374v-91h-374v91z" />
    <glyph glyph-name="question" unicode="?" horiz-adv-x="604" 
d="M284 756q66 0 121 -14.5t94.5 -42.5t61.5 -69.5t22 -97.5q0 -42 -12.5 -75.5t-35 -59.5t-53 -47t-64.5 -37q-51 -24 -76 -54t-25 -77h-113q0 45 7 76.5t21.5 55.5t36 42.5t52.5 37.5q31 20 57 36.5t44 33t27.5 33.5t9.5 36q0 18 -12.5 36t-34 30.5t-51.5 21t-64 8.5
q-66 0 -112.5 -18.5t-66.5 -37.5l-95 73q12 14 34 32.5t54 36t75 29.5t98 12zM261 120q79 0 79 -64q0 -66 -79 -66t-79 66q0 64 79 64z" />
    <glyph glyph-name="at" unicode="@" horiz-adv-x="958" 
d="M244 375q0 45 19 81t49.5 61.5t68.5 40t75 14.5q54 0 84.5 -12t48.5 -28v1q8 7 17 15l18 16l50 -23v-248q0 -14 14.5 -21.5t30.5 -7.5q51 0 76.5 40t25.5 106q0 52 -25.5 96.5t-71.5 77.5t-109 52t-138 19q-73 0 -133.5 -20t-103.5 -57t-67 -89.5t-24 -119.5
q0 -60 27 -111.5t75 -89t115.5 -59.5t148.5 -22q35 0 75 3t70 14l73 -87q-48 -19 -106 -26.5t-115 -7.5q-118 0 -206.5 30t-147.5 82t-89 122.5t-30 151.5q0 80 29.5 150.5t85 123t137 83t186.5 30.5t188 -30t140.5 -77.5t88 -107.5t30.5 -121q0 -57 -15.5 -102.5
t-42.5 -77.5t-63.5 -49t-76.5 -17q-29 0 -59 9t-48 30v-1q-24 -20 -60 -31.5t-88 -11.5q-43 0 -84 13t-73 39t-51 64.5t-19 89.5zM484 270q12 0 27 3.5t29 9.5t26 13.5t20 15.5v108q-17 25 -47 38.5t-61 13.5q-58 0 -92 -24.5t-34 -70.5q0 -23 9.5 -42.5t26.5 -34t41 -22.5
t55 -8z" />
    <glyph glyph-name="bracketleft" unicode="[" horiz-adv-x="336" 
d="M311 861l-16 -104h-115v-877h131l-16 -106h-240v1087h256z" />
    <glyph glyph-name="backslash" unicode="\" horiz-adv-x="407" 
d="M8 770h112l278 -798h-114z" />
    <glyph glyph-name="bracketright" unicode="]" horiz-adv-x="348" 
d="M292 861v-1087h-269l15 106h127v877h-142l15 104h254z" />
    <glyph glyph-name="underscore" unicode="_" horiz-adv-x="748" 
d="M0 -17h748v-79h-748v79z" />
    <glyph glyph-name="grave" unicode="`" horiz-adv-x="332" 
d="M72 786l249 -160l-37 -41l-275 135z" />
    <glyph glyph-name="circumflex" unicode="&#x2c6;" horiz-adv-x="441" 
d="M254 754l149 -133l-41 -31l-141 94l-140 -93l-45 26l151 137h67z" />
    <glyph glyph-name="guilsinglleft" unicode="&#x2039;" horiz-adv-x="222" 
d="M60 278l121 -82l-37 -38l-130 89v64l130 93l36 -41z" />
    <glyph glyph-name="bullet" unicode="&#x2022;" horiz-adv-x="510" 
d="M37 383q0 38 17 73t46.5 60.5t68 40.5t83.5 15t84.5 -15t70 -40.5t48 -60.5t17.5 -73q0 -39 -17.5 -74t-48 -61.5t-70 -42t-84.5 -15.5t-83.5 15.5t-68 42t-46.5 61.5t-17 74z" />
    <glyph glyph-name="endash" unicode="&#x2013;" horiz-adv-x="823" 
d="M87 225v107h643v-107h-643z" />
    <glyph glyph-name="emdash" unicode="&#x2014;" horiz-adv-x="1426" 
d="M144 224v108h1122v-108h-1122z" />
    <glyph glyph-name="tilde" unicode="&#x2dc;" horiz-adv-x="461" 
d="M309 588q-22 0 -43 8t-41.5 18t-39.5 18t-37 8q-16 0 -29.5 -10t-20.5 -26l-65 35q23 45 57 64.5t61 19.5q24 0 42.5 -8t36.5 -18.5t37.5 -18.5t46.5 -8q16 0 29.5 10t23.5 28l60 -36q-30 -42 -61.5 -63t-56.5 -21z" />
    <glyph glyph-name="guilsinglright" unicode="&#x203a;" horiz-adv-x="219" 
d="M37 363l37 41l130 -93v-64l-130 -89l-38 38l122 82z" />
    <glyph glyph-name="exclamdown" unicode="&#xa1;" horiz-adv-x="266" 
d="M132 -10q-28 0 -45 10t-27 26t-13.5 38.5t-3.5 48.5q0 45 8.5 150t27.5 272h105q20 -167 29.5 -270t9.5 -149q0 -28 -4 -51t-14 -39.5t-28 -26t-45 -9.5zM132 632q-79 0 -79 64q0 65 79 65t79 -65q0 -64 -79 -64z" />
    <glyph glyph-name="yen" unicode="&#xa5;" horiz-adv-x="900" 
d="M558 328l-30 -39v-24h222v-114h-222v-103l38 -19v-29h-218v29l38 19v103h-228v114h228v25l-31 38h-197v115h108l-197 252l-54 19v29h258v-29l-24 -19l210 -279l205 279l-25 19v29h248v-29l-53 -19l-191 -252h107v-115h-192z" />
    <glyph glyph-name="section" unicode="&#xa7;" horiz-adv-x="579" 
d="M113 151q27 -21 70 -38t95 -17q18 0 37.5 2.5t37 8t28.5 15.5t11 24q0 13 -1.5 22.5t-7.5 16.5t-16.5 13t-27.5 13q-62 3 -119.5 13.5t-96.5 35.5q-29 19 -48.5 46.5t-19.5 68.5q0 42 20.5 72.5t51.5 49.5q-22 20 -36.5 47.5t-14.5 58.5q0 42 20.5 72.5t53.5 50
t75.5 28.5t85.5 9q29 0 58 -4t56 -11.5t49 -17.5t37 -22l-69 -102q-25 17 -59.5 29t-70.5 12q-15 0 -34 -1t-35.5 -5.5t-27.5 -14t-11 -27.5q0 -23 16.5 -39.5t40.5 -23.5q64 -4 110.5 -12t86.5 -29q34 -17 58 -44.5t24 -69.5q0 -46 -21 -76t-54 -51q53 -39 53 -101
q0 -42 -20 -72.5t-52.5 -51t-75 -31t-85.5 -10.5q-36 0 -73.5 4.5t-71 12.5t-60.5 20t-43 28zM182 373q0 -24 33.5 -36.5t84.5 -12.5q21 0 40.5 3t36 9.5t26.5 16t10 20.5q0 12 -9.5 20.5t-26.5 14.5t-39 9t-47 3q-15 0 -34 -2.5t-36 -8t-28 -14.5t-11 -22z" />
    <glyph glyph-name="copyright" unicode="&#xa9;" horiz-adv-x="829" 
d="M415 764q77 0 145 -30t120 -83t81.5 -124.5t29.5 -154.5q0 -77 -28 -146.5t-77.5 -122t-118.5 -83t-152 -30.5q-85 0 -154.5 30.5t-119 83t-77 122t-27.5 146.5q0 83 30.5 154.5t81.5 124.5t120 83t146 30zM415 684q-71 0 -127 -25t-94 -68.5t-58 -100t-20 -118.5
q0 -60 21 -116t61 -100t95 -70.5t122 -26.5q66 0 121 26.5t94 70.5t60 100t21 116q0 62 -19.5 118.5t-57 100t-93 68.5t-126.5 25zM420 556q13 0 29.5 -1.5t35 -6t37 -13.5t35.5 -24l-37 -67q-15 16 -28 24t-25 13t-24 6t-24 1q-23 0 -42 -10t-32.5 -26.5t-21 -37.5
t-7.5 -43q0 -26 7.5 -48t22 -37.5t35 -24.5t45.5 -9q28 0 47.5 11t39.5 29l45 -51q-14 -16 -31.5 -26.5t-36 -17.5t-37 -9.5t-34.5 -2.5q-43 0 -76.5 13.5t-56.5 38.5t-35.5 59t-12.5 75q0 30 10.5 63t33 60t57 44.5t81.5 17.5z" />
    <glyph glyph-name="registered" unicode="&#xae;" horiz-adv-x="828" 
d="M415 764q77 0 145 -30t119.5 -83t81.5 -124.5t30 -154.5q0 -77 -28 -146.5t-77.5 -121.5t-119 -83t-151.5 -31q-85 0 -154.5 31t-119 83t-77 121.5t-27.5 146.5q0 83 30 154.5t81.5 124.5t120 83t146.5 30zM415 684q-71 0 -127 -25t-94 -68.5t-58 -100t-20 -118.5
q0 -60 21.5 -116t61 -100t94.5 -70.5t122 -26.5t121.5 26.5t93.5 70.5t60 100t21 116q0 62 -19.5 118.5t-57.5 100t-93 68.5t-126 25zM451 582q68 0 105 -31t37 -88q0 -58 -36 -89.5t-96 -31.5l120 -168h-89l-103 165h-46v-165h-75v408h183zM343 516v-113h109q42 0 60 11.5
t18 42.5q0 30 -18 44.5t-60 14.5h-109z" />
    <glyph glyph-name="dieresis" unicode="&#xa8;" horiz-adv-x="510" 
d="M119 733q34 0 53 -19.5t19 -49.5q0 -31 -19 -49.5t-53 -18.5q-31 0 -50 18.5t-19 49.5q0 30 19 49.5t50 19.5zM387 733q31 0 52 -19.5t21 -49.5q0 -31 -21 -49.5t-52 -18.5q-30 0 -49.5 18.5t-19.5 49.5q0 30 19.5 49.5t49.5 19.5z" />
    <glyph glyph-name="degree" unicode="&#xb0;" horiz-adv-x="555" 
d="M276 762q50 0 94 -16.5t76.5 -45.5t51 -69t18.5 -86q0 -43 -17 -81.5t-48.5 -67t-76 -46t-98.5 -17.5q-52 0 -96 17.5t-75.5 46t-49 67t-17.5 81.5q0 46 19 86t51 69t76 45.5t92 16.5zM276 670q-34 0 -60 -10.5t-44 -28t-27.5 -40t-9.5 -46.5q0 -23 10.5 -45.5
t28.5 -39.5t44.5 -28.5t57.5 -11.5q32 0 58.5 11.5t45 28.5t29.5 39.5t11 45.5q0 24 -10 46.5t-28 40t-44.5 28t-61.5 10.5z" />
    <glyph glyph-name="acute" unicode="&#xb4;" horiz-adv-x="380" 
d="M346 717l-272 -134l-36 44l243 156z" />
    <glyph glyph-name="paragraph" unicode="&#xb6;" horiz-adv-x="771" 
d="M704 742l26 -53l-73 -38v-651h-115v648h-153v-648h-113v390q-116 4 -183.5 48.5t-67.5 125.5q0 87 67 132.5t191 45.5h421z" />
    <glyph glyph-name="cedilla" unicode="&#xb8;" horiz-adv-x="276" 
d="M155 5q0 -19 13.5 -29.5t30 -21t30.5 -26t14 -46.5q0 -26 -11 -43.5t-27.5 -28.5t-35.5 -15t-37 -4q-36 0 -65.5 16.5t-47.5 36.5l49 41q21 -25 59 -25q23 0 40.5 5.5t17.5 23.5q0 17 -13 27t-28.5 20.5t-28.5 25.5t-13 43h53z" />
    <glyph glyph-name="guillemotright" unicode="&#xbb;" horiz-adv-x="418" 
d="M46 363l37 41l128 -93v-64l-128 -89l-38 38l123 82zM219 363l36 41l130 -93v-64l-130 -89l-37 38l123 82z" />
    <glyph glyph-name="guillemotleft" unicode="&#xab;" horiz-adv-x="419" 
d="M76 278l123 -82l-38 -38l-129 89v64l129 93l37 -41zM249 278l123 -82l-38 -38l-129 89v64l129 93l37 -41z" />
    <glyph glyph-name="caron" unicode="&#x2c7;" horiz-adv-x="441" 
d="M185 590l-149 133l42 31l141 -94l140 93l44 -26l-151 -137h-67z" />
    <glyph glyph-name="fraction" unicode="&#x2044;" horiz-adv-x="645" 
d="M100 0h-96l544 743h93z" />
    <glyph glyph-name="ring" unicode="&#x2da;" horiz-adv-x="334" 
d="M168 761q26 0 49 -9t40.5 -24t27.5 -35t10 -42q0 -25 -9.5 -45.5t-27 -35.5t-40.5 -23t-50 -8q-57 0 -93.5 31t-36.5 81q0 23 10 43t27 35t41 23.5t52 8.5zM168 700q-34 0 -53.5 -15t-19.5 -34q0 -22 19.5 -36.5t53.5 -14.5q30 0 51 14.5t21 36.5q0 19 -21 34t-51 15z
" />
    <glyph glyph-name="comma" unicode="," horiz-adv-x="221" 
d="M109 121q79 0 79 -69q0 -31 -22 -63.5t-63 -64.5l-37 18q30 40 36 62q-72 0 -72 59q0 58 79 58z" />
    <glyph glyph-name="quotesinglbase" unicode="&#x201a;" horiz-adv-x="221" 
d="M109 121q79 0 79 -69q0 -31 -22 -63.5t-63 -64.5l-37 18q30 40 36 62q-72 0 -72 59q0 58 79 58z" />
    <glyph glyph-name="quotedblbase" unicode="&#x201e;" horiz-adv-x="439" 
d="M316 121q79 0 79 -69q0 -63 -86 -128l-37 18q16 22 24 36t12 26q-72 0 -72 59q0 58 80 58zM123 121q79 0 79 -69q0 -31 -22.5 -63.5t-63.5 -64.5l-36 18q29 40 35 62q-72 0 -72 59q0 58 80 58z" />
    <glyph glyph-name="quotedblright" unicode="&#x201d;" horiz-adv-x="439" 
d="M316 742q79 0 79 -69q0 -64 -86 -128l-37 18q16 21 24 35.5t12 25.5q-72 0 -72 60q0 58 80 58zM123 742q79 0 79 -69q0 -32 -22.5 -64.5t-63.5 -63.5l-36 18q15 20 23.5 35t11.5 26q-72 0 -72 60q0 58 80 58z" />
    <glyph glyph-name="quoteright" unicode="&#x2019;" horiz-adv-x="221" 
d="M109 742q79 0 79 -69q0 -32 -22 -64.5t-63 -63.5l-37 18q16 20 24.5 35t11.5 26q-72 0 -72 60q0 58 79 58z" />
    <glyph glyph-name="quotedblleft" unicode="&#x201c;" horiz-adv-x="438" 
d="M122 553q-79 0 -79 69q0 62 86 129l36 -19q-15 -20 -24 -35t-11 -26q71 0 71 -59t-79 -59zM314 553q-79 0 -79 69q0 31 22 63.5t64 65.5l36 -19q-15 -20 -24 -35t-11 -26q72 0 72 -59t-80 -59z" />
    <glyph glyph-name="quoteleft" unicode="&#x2018;" horiz-adv-x="223" 
d="M110 553q-78 0 -78 69q0 62 85 129l37 -19q-16 -20 -24.5 -35t-11.5 -26q72 0 72 -59t-80 -59z" />
    <glyph glyph-name="ellipsis" unicode="&#x2026;" horiz-adv-x="1294" 
d="M660 120q78 0 78 -64q0 -66 -78 -66q-80 0 -80 66q0 64 80 64zM1163 120q77 0 77 -64q0 -66 -77 -66q-80 0 -80 66q0 64 80 64zM132 120q78 0 78 -64q0 -66 -78 -66q-79 0 -79 66q0 64 79 64z" />
    <glyph glyph-name="ampersand" unicode="&#x26;" horiz-adv-x="851" 
d="M325 756q70 0 116.5 -17.5t73.5 -39.5l41 13l20 -21l-158 -151l-21 21l15 40q-16 9 -37 16t-51 7q-19 0 -36 -4t-30 -12.5t-21.5 -23.5t-8.5 -37q0 -38 75.5 -112.5t223.5 -195.5q26 37 36.5 73t15.5 61l-39 20v28h219v-28l-38 -20q-10 -49 -31 -104.5t-64 -112.5
l141 -108l64 -20v-28h-279v28l13 19l-31 25q-43 -40 -99.5 -64.5t-119.5 -24.5q-60 0 -109.5 15.5t-86 45t-57.5 71t-21 92.5q0 69 31 113.5t94 75.5q-74 88 -74 163q0 39 16 75t45.5 63t73.5 43t98 16zM325 112q31 0 59 10t53 27q-58 46 -104.5 85.5t-84.5 75.5
q-25 -19 -43.5 -42.5t-18.5 -48.5q0 -52 37.5 -79.5t101.5 -27.5z" />
    <glyph glyph-name="asterisk" unicode="*" horiz-adv-x="532" 
d="M105 686l120 -96v155h80v-155l121 97l51 -64l-121 -96l151 -35l-18 -79l-152 34l68 -139l-73 -34l-67 139l-68 -139l-72 34l67 139l-151 -33l-17 78l151 35l-122 96z" />
    <glyph glyph-name="braceleft" unicode="{" horiz-adv-x="471" 
d="M343 -225q-152 0 -152 208v83q0 102 -48 146t-137 48v115q44 2 78 13.5t58 34.5t36.5 59.5t12.5 87.5v85q0 205 152 205h90v-102q-47 0 -74.5 -5.5t-42 -27t-18.5 -65t-4 -117.5q0 -34 -7 -67.5t-21 -63t-36 -54t-50 -39.5q29 -19 50.5 -41t35.5 -49t21 -61t7 -76
q0 -72 3 -115t17 -65t42 -29t77 -7v-101h-90z" />
    <glyph glyph-name="bar" unicode="|" horiz-adv-x="216" 
d="M55 860h102v-1086h-102v1086z" />
    <glyph glyph-name="braceright" unicode="}" horiz-adv-x="471" 
d="M129 859q151 0 151 -206v-85q0 -101 48 -145.5t138 -48.5v-115q-45 -2 -79.5 -13.5t-58 -34.5t-36 -59.5t-12.5 -87.5v-84q0 -206 -151 -206h-91v102q47 0 74.5 6t42 27.5t19 64.5t4.5 117q0 35 6.5 68.5t21 63t36 53.5t50.5 41q-30 18 -51.5 40t-35.5 49t-20.5 60.5
t-6.5 75.5q0 72 -3.5 115.5t-17.5 65.5t-42 28.5t-77 6.5v101h91z" />
    <glyph glyph-name="less" unicode="&#x3c;" horiz-adv-x="460" 
d="M8 242v80l361 178l44 -70l-319 -148l319 -149l-44 -70z" />
    <glyph glyph-name="greater" unicode="&#x3e;" horiz-adv-x="459" 
d="M90 63l-45 70l319 149l-319 148l45 70l361 -178v-80z" />
    <glyph glyph-name="asciicircum" unicode="^" horiz-adv-x="603" 
d="M267 723h70l226 -317l-75 -32l-187 278l-186 -278l-74 32z" />
    <glyph glyph-name="sterling" unicode="&#xa3;" horiz-adv-x="655" 
d="M388 761q38 0 74.5 -5t70.5 -22l-74 -114q-29 15 -65 15q-69 0 -95 -23.5t-26 -78.5v-62h168v-127h-168v-66q0 -61 -11 -94t-34 -54h336l20 57h28v-187h-581v130h16q24 0 42 15t30 38.5t18 52.5t6 57v51h-56v127h56v48q0 42 12.5 85t41.5 78t76 57t115 22z" />
    <glyph glyph-name="OE" unicode="&#x152;" horiz-adv-x="1476" 
d="M803 743h616v-182h-29l-19 57h-426v-172h370l19 39h29v-197h-29l-19 38h-370v-196h437l20 57h28v-187h-627v74q-61 -44 -139 -68t-172 -24q-96 0 -179 27t-144 77t-96 120t-35 155q0 82 32.5 154t92 125.5t143.5 84.5t186 31q94 0 172 -27.5t139 -75.5v90zM492 624
q-66 0 -121.5 -20.5t-96 -56t-63.5 -83.5t-23 -103q0 -52 23 -97.5t64 -79t96.5 -53t120.5 -19.5t120.5 18.5t96 51t63.5 78t23 101.5q0 55 -22.5 103t-63 83.5t-95.5 56t-122 20.5z" />
    <glyph glyph-name="AE" unicode="&#xc6;" horiz-adv-x="1264" 
d="M585 163h-308l-67 -120l42 -14v-29h-254v30l53 18l362 695h790v-182h-29l-19 57h-426v-172h370l19 39h29v-197h-29l-19 38h-370v-196h437l20 57h28v-187h-666v29l37 18v116zM339 300h246v318h-81z" />
    <glyph glyph-name="cent" unicode="&#xa2;" horiz-adv-x="641" 
d="M304 84q-58 9 -106 32t-82 58.5t-53 82t-19 100.5q0 40 17 83.5t50 81.5t81.5 65.5t111.5 38.5v117h84v-114q21 -1 46 -4.5t52.5 -11t55 -20.5t53.5 -33l-69 -106q-39 33 -72 45.5t-66 14.5v-315q40 4 68.5 17t56.5 36l84 -80q-23 -22 -49.5 -37.5t-53.5 -26t-54.5 -16.5
t-51.5 -8v-84h-84v84zM178 356q0 -53 36 -93t90 -58v303q-26 -9 -49 -24.5t-40 -36t-27 -44t-10 -47.5z" />
    <glyph glyph-name="Oslash" unicode="&#xd8;" horiz-adv-x="976" 
d="M272 -88l-103 45l59 87q-91 49 -142 129t-51 188q0 82 32 154t91.5 125.5t143.5 84.5t187 31q49 0 95 -8.5t90 -25.5v-3q13 19 27 40t28 41l100 -45l-55 -84q80 -54 124.5 -133.5t44.5 -176.5q0 -85 -34 -155t-94.5 -120t-143.5 -77t-182 -27q-82 0 -154 19v4zM184 361
q0 -61 31.5 -112t87.5 -88v-3q76 117 149 225.5t149 224.5q-51 16 -112 16q-67 0 -122.5 -20.5t-96 -56t-63.5 -83.5t-23 -103zM489 112q65 0 120 18.5t95.5 51t63.5 78t23 101.5q0 57 -24.5 106t-67.5 87v1q-74 -111 -144.5 -217t-144.5 -218q20 -4 39.5 -6t39.5 -2z" />
    <glyph glyph-name="trademark" unicode="&#x2122;" horiz-adv-x="1014" 
d="M731 538l145 204h83v-414h-83v273l-145 -207l-155 207v-273h-84v414h99zM174 657h-133v85h350v-85h-132v-329h-85v329z" />
    <glyph glyph-name="Ydieresis" unicode="&#x178;" horiz-adv-x="891" 
d="M342 0v29l38 19v242l-317 405l-53 19v29h257v-29l-24 -19l210 -279l206 279l-25 19v29h247v-29l-53 -19l-306 -406v-241l39 -19v-29h-219zM309 922q34 0 53 -19.5t19 -49.5q0 -31 -19 -49.5t-53 -18.5q-31 0 -50 18.5t-19 49.5q0 30 19 49.5t50 19.5zM577 922
q31 0 52 -19.5t21 -49.5q0 -31 -21 -49.5t-52 -18.5q-30 0 -49.5 18.5t-19.5 49.5q0 30 19.5 49.5t49.5 19.5z" />
    <glyph glyph-name="Agrave" unicode="&#xc0;" horiz-adv-x="991" 
d="M564 743l368 -695l49 -19v-29h-249v29l30 19l-60 137h-411l-76 -137l28 -19v-29h-233v29l48 19l361 695h145zM489 595l-145 -295h290zM402 975l249 -160l-37 -41l-275 135z" />
    <glyph glyph-name="Aacute" unicode="&#xc1;" horiz-adv-x="991" 
d="M564 743l368 -695l49 -19v-29h-249v29l30 19l-60 137h-411l-76 -137l28 -19v-29h-233v29l48 19l361 695h145zM489 595l-145 -295h290zM649 906l-272 -134l-36 44l243 156z" />
    <glyph glyph-name="Acircumflex" unicode="&#xc2;" horiz-adv-x="991" 
d="M564 743l368 -695l49 -19v-29h-249v29l30 19l-60 137h-411l-76 -137l28 -19v-29h-233v29l48 19l361 695h145zM489 595l-145 -295h290zM530 943l149 -133l-41 -31l-141 94l-140 -93l-45 26l151 137h67z" />
    <glyph glyph-name="Atilde" unicode="&#xc3;" horiz-adv-x="991" 
d="M564 743l368 -695l49 -19v-29h-249v29l30 19l-60 137h-411l-76 -137l28 -19v-29h-233v29l48 19l361 695h145zM489 595l-145 -295h290zM574 777q-22 0 -43 8t-41.5 18t-39.5 18t-37 8q-16 0 -29.5 -10t-20.5 -26l-65 35q23 45 57 64.5t61 19.5q24 0 42.5 -8t36.5 -18.5
t37.5 -18.5t46.5 -8q16 0 29.5 10t23.5 28l60 -36q-30 -42 -61.5 -63t-56.5 -21z" />
    <glyph glyph-name="Adieresis" unicode="&#xc4;" horiz-adv-x="991" 
d="M564 743l368 -695l49 -19v-29h-249v29l30 19l-60 137h-411l-76 -137l28 -19v-29h-233v29l48 19l361 695h145zM489 595l-145 -295h290zM359 922q34 0 53 -19.5t19 -49.5q0 -31 -19 -49.5t-53 -18.5q-31 0 -50 18.5t-19 49.5q0 30 19 49.5t50 19.5zM627 922q31 0 52 -19.5
t21 -49.5q0 -31 -21 -49.5t-52 -18.5q-30 0 -49.5 18.5t-19.5 49.5q0 30 19.5 49.5t49.5 19.5z" />
    <glyph glyph-name="Aring" unicode="&#xc5;" horiz-adv-x="991" 
d="M564 743l368 -695l49 -19v-29h-249v29l30 19l-60 137h-411l-76 -137l28 -19v-29h-233v29l48 19l361 695h145zM489 595l-145 -295h290zM496 950q26 0 49 -9t40.5 -24t27.5 -35t10 -42q0 -25 -9.5 -45.5t-27 -35.5t-40.5 -23t-50 -8q-57 0 -93.5 31t-36.5 81q0 23 10 43
t27 35t41 23.5t52 8.5zM496 889q-34 0 -53.5 -15t-19.5 -34q0 -22 19.5 -36.5t53.5 -14.5q30 0 51 14.5t21 36.5q0 19 -21 34t-51 15z" />
    <glyph glyph-name="Ccedilla" unicode="&#xc7;" horiz-adv-x="900" 
d="M187 364q0 -52 23 -97.5t64 -79t96.5 -53t121.5 -19.5q46 0 81 5.5t61 13.5t44.5 18.5t31.5 22.5l-9 42l22 17l140 -167l-21 -19l-40 18q-39 -20 -73.5 -36t-71 -26.5t-77 -15.5t-88.5 -5q-96 0 -179.5 27t-144 76.5t-96 119.5t-35.5 155q0 82 30.5 154t90 125.5
t148.5 84.5t207 31q52 0 99.5 -11.5t85.5 -26t63.5 -28.5t34.5 -20l38 15l22 -19l-141 -167l-22 19l10 43q-25 19 -49 31.5t-49 20t-53 11t-60 3.5q-68 0 -123.5 -20.5t-96 -56t-63 -83.5t-22.5 -103zM474 5q0 -19 13.5 -29.5t30 -21t30.5 -26t14 -46.5q0 -26 -11 -43.5
t-27.5 -28.5t-35.5 -15t-37 -4q-36 0 -65.5 16.5t-47.5 36.5l49 41q21 -25 59 -25q23 0 40.5 5.5t17.5 23.5q0 17 -13 27t-28.5 20.5t-28.5 25.5t-13 43h53z" />
    <glyph glyph-name="Egrave" unicode="&#xc8;" horiz-adv-x="768" 
d="M48 743h655v-182h-29l-19 57h-427v-172h371l19 39h29v-197h-29l-19 38h-371v-196h438l19 57h29v-187h-666v29l38 19v647l-38 19v29zM291 975l249 -160l-37 -41l-275 135z" />
    <glyph glyph-name="Eacute" unicode="&#xc9;" horiz-adv-x="768" 
d="M48 743h655v-182h-29l-19 57h-427v-172h371l19 39h29v-197h-29l-19 38h-371v-196h438l19 57h29v-187h-666v29l38 19v647l-38 19v29zM538 906l-272 -134l-36 44l243 156z" />
    <glyph glyph-name="Ecircumflex" unicode="&#xca;" horiz-adv-x="768" 
d="M48 743h655v-182h-29l-19 57h-427v-172h371l19 39h29v-197h-29l-19 38h-371v-196h438l19 57h29v-187h-666v29l38 19v647l-38 19v29zM418 943l149 -133l-41 -31l-141 94l-140 -93l-45 26l151 137h67z" />
    <glyph glyph-name="Edieresis" unicode="&#xcb;" horiz-adv-x="768" 
d="M48 743h655v-182h-29l-19 57h-427v-172h371l19 39h29v-197h-29l-19 38h-371v-196h438l19 57h29v-187h-666v29l38 19v647l-38 19v29zM248 922q34 0 53 -19.5t19 -49.5q0 -31 -19 -49.5t-53 -18.5q-31 0 -50 18.5t-19 49.5q0 30 19 49.5t50 19.5zM516 922q31 0 52 -19.5
t21 -49.5q0 -31 -21 -49.5t-52 -18.5q-30 0 -49.5 18.5t-19.5 49.5q0 30 19.5 49.5t49.5 19.5z" />
    <glyph glyph-name="Igrave" unicode="&#xcc;" horiz-adv-x="292" 
d="M36 0v29l38 19v647l-38 19v29h218v-29l-38 -19v-647l38 -19v-29h-218zM55 975l249 -160l-37 -41l-275 135z" />
    <glyph glyph-name="Iacute" unicode="&#xcd;" horiz-adv-x="292" 
d="M36 0v29l38 19v647l-38 19v29h218v-29l-38 -19v-647l38 -19v-29h-218zM301 906l-272 -134l-36 44l243 156z" />
    <glyph glyph-name="Icircumflex" unicode="&#xce;" horiz-adv-x="292" 
d="M36 0v29l38 19v647l-38 19v29h218v-29l-38 -19v-647l38 -19v-29h-218zM182 943l149 -133l-41 -31l-141 94l-140 -93l-45 26l151 137h67z" />
    <glyph glyph-name="Idieresis" unicode="&#xcf;" horiz-adv-x="292" 
d="M36 0v29l38 19v647l-38 19v29h218v-29l-38 -19v-647l38 -19v-29h-218zM12 922q34 0 53 -19.5t19 -49.5q0 -31 -19 -49.5t-53 -18.5q-31 0 -50 18.5t-19 49.5q0 30 19 49.5t50 19.5zM280 922q31 0 52 -19.5t21 -49.5q0 -31 -21 -49.5t-52 -18.5q-30 0 -49.5 18.5
t-19.5 49.5q0 30 19.5 49.5t49.5 19.5z" />
    <glyph glyph-name="Ntilde" unicode="&#xd1;" horiz-adv-x="920" 
d="M49 0v29l38 19v647l-38 19v29h177l469 -545v497l-38 19v29h215v-29l-39 -19v-695h-162l-445 521v-473l38 -19v-29h-215zM538 777q-22 0 -43 8t-41.5 18t-39.5 18t-37 8q-16 0 -29.5 -10t-20.5 -26l-65 35q23 45 57 64.5t61 19.5q24 0 42.5 -8t36.5 -18.5t37.5 -18.5
t46.5 -8q16 0 29.5 10t23.5 28l60 -36q-30 -42 -61.5 -63t-56.5 -21z" />
    <glyph glyph-name="Ograve" unicode="&#xd2;" horiz-adv-x="985" 
d="M492 756q99 0 182 -31t143.5 -84.5t95 -125.5t34.5 -154q0 -85 -34.5 -155t-95 -120t-143.5 -77t-182 -27q-96 0 -179 27t-144 77t-96 120t-35 155q0 82 32.5 154t92 125.5t143.5 84.5t186 31zM492 624q-66 0 -121.5 -20.5t-96 -56t-63.5 -83.5t-23 -103q0 -52 23 -97.5
t64 -79t96.5 -53t120.5 -19.5q66 0 121 18.5t95.5 51t63.5 78t23 101.5q0 55 -22.5 103t-63 83.5t-95.5 56t-122 20.5zM399 975l249 -160l-37 -41l-275 135z" />
    <glyph glyph-name="Oacute" unicode="&#xd3;" horiz-adv-x="985" 
d="M492 756q99 0 182 -31t143.5 -84.5t95 -125.5t34.5 -154q0 -85 -34.5 -155t-95 -120t-143.5 -77t-182 -27q-96 0 -179 27t-144 77t-96 120t-35 155q0 82 32.5 154t92 125.5t143.5 84.5t186 31zM492 624q-66 0 -121.5 -20.5t-96 -56t-63.5 -83.5t-23 -103q0 -52 23 -97.5
t64 -79t96.5 -53t120.5 -19.5q66 0 121 18.5t95.5 51t63.5 78t23 101.5q0 55 -22.5 103t-63 83.5t-95.5 56t-122 20.5zM646 906l-272 -134l-36 44l243 156z" />
    <glyph glyph-name="Ocircumflex" unicode="&#xd4;" horiz-adv-x="985" 
d="M492 756q99 0 182 -31t143.5 -84.5t95 -125.5t34.5 -154q0 -85 -34.5 -155t-95 -120t-143.5 -77t-182 -27q-96 0 -179 27t-144 77t-96 120t-35 155q0 82 32.5 154t92 125.5t143.5 84.5t186 31zM492 624q-66 0 -121.5 -20.5t-96 -56t-63.5 -83.5t-23 -103q0 -52 23 -97.5
t64 -79t96.5 -53t120.5 -19.5q66 0 121 18.5t95.5 51t63.5 78t23 101.5q0 55 -22.5 103t-63 83.5t-95.5 56t-122 20.5zM527 943l149 -133l-41 -31l-141 94l-140 -93l-45 26l151 137h67z" />
    <glyph glyph-name="Otilde" unicode="&#xd5;" horiz-adv-x="985" 
d="M492 756q99 0 182 -31t143.5 -84.5t95 -125.5t34.5 -154q0 -85 -34.5 -155t-95 -120t-143.5 -77t-182 -27q-96 0 -179 27t-144 77t-96 120t-35 155q0 82 32.5 154t92 125.5t143.5 84.5t186 31zM492 624q-66 0 -121.5 -20.5t-96 -56t-63.5 -83.5t-23 -103q0 -52 23 -97.5
t64 -79t96.5 -53t120.5 -19.5q66 0 121 18.5t95.5 51t63.5 78t23 101.5q0 55 -22.5 103t-63 83.5t-95.5 56t-122 20.5zM571 777q-22 0 -43 8t-41.5 18t-39.5 18t-37 8q-16 0 -29.5 -10t-20.5 -26l-65 35q23 45 57 64.5t61 19.5q24 0 42.5 -8t36.5 -18.5t37.5 -18.5t46.5 -8
q16 0 29.5 10t23.5 28l60 -36q-30 -42 -61.5 -63t-56.5 -21z" />
    <glyph glyph-name="Odieresis" unicode="&#xd6;" horiz-adv-x="985" 
d="M492 756q99 0 182 -31t143.5 -84.5t95 -125.5t34.5 -154q0 -85 -34.5 -155t-95 -120t-143.5 -77t-182 -27q-96 0 -179 27t-144 77t-96 120t-35 155q0 82 32.5 154t92 125.5t143.5 84.5t186 31zM492 624q-66 0 -121.5 -20.5t-96 -56t-63.5 -83.5t-23 -103q0 -52 23 -97.5
t64 -79t96.5 -53t120.5 -19.5q66 0 121 18.5t95.5 51t63.5 78t23 101.5q0 55 -22.5 103t-63 83.5t-95.5 56t-122 20.5zM356 922q34 0 53 -19.5t19 -49.5q0 -31 -19 -49.5t-53 -18.5q-31 0 -50 18.5t-19 49.5q0 30 19 49.5t50 19.5zM624 922q31 0 52 -19.5t21 -49.5
q0 -31 -21 -49.5t-52 -18.5q-30 0 -49.5 18.5t-19.5 49.5q0 30 19.5 49.5t49.5 19.5z" />
    <glyph glyph-name="Ugrave" unicode="&#xd9;" horiz-adv-x="905" 
d="M645 743h219v-29l-38 -19v-390q0 -91 -35 -153t-90 -99.5t-120.5 -53.5t-127.5 -16t-128 16t-120.5 53.5t-89.5 99.5t-35 153v390l-39 19v29h219v-29l-38 -19v-383q0 -47 16.5 -84t47 -63t73 -39.5t94.5 -13.5t94 13.5t72.5 39.5t47.5 63t17 84v383l-39 19v29zM360 975
l249 -160l-37 -41l-275 135z" />
    <glyph glyph-name="Uacute" unicode="&#xda;" horiz-adv-x="905" 
d="M645 743h219v-29l-38 -19v-390q0 -91 -35 -153t-90 -99.5t-120.5 -53.5t-127.5 -16t-128 16t-120.5 53.5t-89.5 99.5t-35 153v390l-39 19v29h219v-29l-38 -19v-383q0 -47 16.5 -84t47 -63t73 -39.5t94.5 -13.5t94 13.5t72.5 39.5t47.5 63t17 84v383l-39 19v29zM606 906
l-272 -134l-36 44l243 156z" />
    <glyph glyph-name="Ucircumflex" unicode="&#xdb;" horiz-adv-x="905" 
d="M645 743h219v-29l-38 -19v-390q0 -91 -35 -153t-90 -99.5t-120.5 -53.5t-127.5 -16t-128 16t-120.5 53.5t-89.5 99.5t-35 153v390l-39 19v29h219v-29l-38 -19v-383q0 -47 16.5 -84t47 -63t73 -39.5t94.5 -13.5t94 13.5t72.5 39.5t47.5 63t17 84v383l-39 19v29zM487 943
l149 -133l-41 -31l-141 94l-140 -93l-45 26l151 137h67z" />
    <glyph glyph-name="Udieresis" unicode="&#xdc;" horiz-adv-x="905" 
d="M645 743h219v-29l-38 -19v-390q0 -91 -35 -153t-90 -99.5t-120.5 -53.5t-127.5 -16t-128 16t-120.5 53.5t-89.5 99.5t-35 153v390l-39 19v29h219v-29l-38 -19v-383q0 -47 16.5 -84t47 -63t73 -39.5t94.5 -13.5t94 13.5t72.5 39.5t47.5 63t17 84v383l-39 19v29zM317 922
q34 0 53 -19.5t19 -49.5q0 -31 -19 -49.5t-53 -18.5q-31 0 -50 18.5t-19 49.5q0 30 19 49.5t50 19.5zM585 922q31 0 52 -19.5t21 -49.5q0 -31 -21 -49.5t-52 -18.5q-30 0 -49.5 18.5t-19.5 49.5q0 30 19.5 49.5t49.5 19.5z" />
    <glyph glyph-name="dotlessi" unicode="&#x131;" horiz-adv-x="261" 
d="M41 0v29l28 19v458l-28 19v29h176v-29l-27 -19v-458l27 -19v-29h-176z" />
    <glyph glyph-name="ordfeminine" unicode="&#xaa;" horiz-adv-x="484" 
d="M235 684q27 0 62 -7.5t65.5 -26.5t51.5 -50t21 -77v-232l-49 -3l-38 24v1q-23 -14 -61.5 -24t-87.5 -10q-29 0 -57.5 8t-51.5 23.5t-37.5 38.5t-14.5 52q0 59 44.5 96.5t136.5 37.5q36 0 68 -5t55 -16q0 18 -5 32.5t-19.5 24t-40 14.5t-69.5 5q-8 0 -22 -1t-28.5 -3
t-27 -4.5t-18.5 -6.5l-45 76q23 11 47 18t46 10t41.5 4t33.5 1zM248 447q-20 0 -40.5 -1.5t-37 -5.5t-27.5 -12.5t-11 -21.5q0 -15 8 -22.5t20.5 -11t28 -4.5t32.5 -1q31 0 62.5 5t56.5 24v29q-22 13 -45 17.5t-47 4.5z" />
    <glyph glyph-name="plusminus" unicode="&#xb1;" horiz-adv-x="539" 
d="M31 291v104h191v143h100v-143h185v-104h-185v-138h-100v138h-191zM32 36v94h475v-94h-475z" />
    <glyph glyph-name="questiondown" unicode="&#xbf;" horiz-adv-x="604" 
d="M321 -11q-67 0 -121.5 14t-94 42.5t-61.5 70t-22 97.5q0 42 12.5 75.5t35 59.5t53 47t64.5 37q51 24 76 54t25 77h112q0 -45 -6.5 -76.5t-21 -55.5t-36.5 -42.5t-52 -37.5q-32 -20 -57.5 -36.5t-43.5 -33t-27.5 -33.5t-9.5 -36t12.5 -36.5t34 -30.5t51.5 -21t64 -8
q65 0 112 18.5t67 37.5l95 -73q-12 -14 -34 -32.5t-54 -36t-75.5 -29.5t-97.5 -12zM344 625q-79 0 -79 64q0 66 79 66q78 0 78 -66q0 -64 -78 -64z" />
    <glyph glyph-name="dagger" unicode="&#x2020;" horiz-adv-x="444" 
d="M180 604l-11 139h104l-11 -139h143v-70h-133l-35 -534h-28l-39 534h-133v70h143z" />
    <glyph glyph-name="daggerdbl" unicode="&#x2021;" horiz-adv-x="455" 
d="M269 139l10 -139h-103l10 139h-143v70h133l13 145v60l-13 120h-133v70h142l-10 139h103l-10 -139h143v-70h-134l-12 -120v-60l13 -145h133v-70h-142z" />
    <glyph glyph-name="macron" unicode="&#xaf;" horiz-adv-x="459" 
d="M55 589v77h348v-77h-348z" />
    <glyph glyph-name="divide" unicode="&#xf7;" horiz-adv-x="522" 
d="M13 225v107h495v-107h-495zM266 167q78 0 78 -64q-3 -66 -78 -66q-81 0 -81 66q0 64 81 64zM266 516q78 0 78 -64q-3 -66 -78 -66q-81 0 -81 66q0 64 81 64z" />
    <glyph glyph-name="periodcentered" unicode="&#xb7;" horiz-adv-x="250" 
d="M123 349q79 0 79 -64q0 -66 -79 -66q-81 0 -81 66q0 64 81 64z" />
    <glyph glyph-name="ordmasculine" unicode="&#xba;" horiz-adv-x="550" 
d="M38 462q0 43 17 80.5t47.5 66.5t74.5 46t98 17q51 0 94.5 -17t75 -46t49.5 -66.5t18 -80.5q0 -46 -18 -83.5t-49.5 -63.5t-75 -41t-94.5 -15t-94.5 14.5t-75 41t-49.5 64t-18 83.5zM130 462q0 -24 10.5 -44.5t30 -36.5t46 -25t58.5 -9q31 0 57 8.5t45 23.5t30 36t11 47
q0 25 -11 47t-30 38t-45 25.5t-57 9.5q-32 0 -58.5 -9.5t-46 -25.5t-30 -38t-10.5 -47z" />
    <glyph glyph-name="uni00A0" unicode="&#xa0;" horiz-adv-x="576" 
 />
    <glyph glyph-name="agrave" unicode="&#xe0;" horiz-adv-x="734" 
d="M362 418l-89 -183h178zM421 554l268 -505l38 -20v-29h-199v28l20 20l-38 85h-284l-49 -85l17 -20v-28h-186v30l36 18l262 506h115zM275 786l249 -160l-37 -41l-275 135z" />
    <glyph glyph-name="aacute" unicode="&#xe1;" horiz-adv-x="734" 
d="M362 418l-89 -183h178zM421 554l268 -505l38 -20v-29h-199v28l20 20l-38 85h-284l-49 -85l17 -20v-28h-186v30l36 18l262 506h115zM521 717l-272 -134l-36 44l243 156z" />
    <glyph glyph-name="acircumflex" unicode="&#xe2;" horiz-adv-x="734" 
d="M362 418l-89 -183h178zM421 554l268 -505l38 -20v-29h-199v28l20 20l-38 85h-284l-49 -85l17 -20v-28h-186v30l36 18l262 506h115zM402 754l149 -133l-41 -31l-141 94l-140 -93l-45 26l151 137h67z" />
    <glyph glyph-name="atilde" unicode="&#xe3;" horiz-adv-x="734" 
d="M362 418l-89 -183h178zM421 554l268 -505l38 -20v-29h-199v28l20 20l-38 85h-284l-49 -85l17 -20v-28h-186v30l36 18l262 506h115zM446 588q-22 0 -43 8t-41.5 18t-39.5 18t-37 8q-16 0 -29.5 -10t-20.5 -26l-65 35q23 45 57 64.5t61 19.5q24 0 42.5 -8t36.5 -18.5
t37.5 -18.5t46.5 -8q16 0 29.5 10t23.5 28l60 -36q-30 -42 -61.5 -63t-56.5 -21z" />
    <glyph glyph-name="adieresis" unicode="&#xe4;" horiz-adv-x="734" 
d="M362 418l-89 -183h178zM421 554l268 -505l38 -20v-29h-199v28l20 20l-38 85h-284l-49 -85l17 -20v-28h-186v30l36 18l262 506h115zM231 733q34 0 53 -19.5t19 -49.5q0 -31 -19 -49.5t-53 -18.5q-31 0 -50 18.5t-19 49.5q0 30 19 49.5t50 19.5zM499 733q31 0 52 -19.5
t21 -49.5q0 -31 -21 -49.5t-52 -18.5q-30 0 -49.5 18.5t-19.5 49.5q0 30 19.5 49.5t49.5 19.5z" />
    <glyph glyph-name="aring" unicode="&#xe5;" horiz-adv-x="734" 
d="M362 418l-89 -183h178zM421 554l268 -505l38 -20v-29h-199v28l20 20l-38 85h-284l-49 -85l17 -20v-28h-186v30l36 18l262 506h115zM369 761q26 0 49 -9t40.5 -24t27.5 -35t10 -42q0 -25 -9.5 -45.5t-27 -35.5t-40.5 -23t-50 -8q-57 0 -93.5 31t-36.5 81q0 23 10 43t27 35
t41 23.5t52 8.5zM369 700q-34 0 -53.5 -15t-19.5 -34q0 -22 19.5 -36.5t53.5 -14.5q30 0 51 14.5t21 36.5q0 19 -21 34t-51 15z" />
    <glyph glyph-name="ae" unicode="&#xe6;" horiz-adv-x="998" 
d="M501 127h-229l-44 -82l42 -24v-21h-217v22l49 26l270 506h592v-149h-32l-14 43h-290v-107h249l15 28h31v-161h-31l-15 27h-249v-127h298l15 47h31v-155h-517v21l46 27v79zM324 232h177v229h-56z" />
    <glyph glyph-name="ccedilla" unicode="&#xe7;" horiz-adv-x="693" 
d="M386 564q43 0 77 -6.5t60.5 -15.5t44.5 -19.5t28 -18.5l28 12l23 -21l-113 -135l-24 21l7 29q-33 25 -65.5 34t-77.5 9q-46 0 -84 -14.5t-66.5 -39t-44 -57.5t-15.5 -70q0 -36 16.5 -66.5t44.5 -53.5t66.5 -36.5t82.5 -13.5q63 0 96 10.5t52 25.5l-6 32l24 17l112 -134
l-21 -19l-33 13q-28 -14 -53 -25t-51 -19t-54.5 -11.5t-65.5 -3.5q-71 0 -132.5 20t-107 57t-71.5 89t-26 116t22.5 118t66 92.5t109 61t151.5 22.5zM370 5q0 -19 13.5 -29.5t30 -21t30.5 -26t14 -46.5q0 -26 -11 -43.5t-27.5 -28.5t-35.5 -15t-37 -4q-36 0 -65.5 16.5
t-47.5 36.5l49 41q21 -25 59 -25q23 0 40.5 5.5t17.5 23.5q0 17 -13 27t-28.5 20.5t-28.5 25.5t-13 43h53z" />
    <glyph glyph-name="egrave" unicode="&#xe8;" horiz-adv-x="604" 
d="M50 554h486v-150h-31l-14 42h-292v-108h251l14 28h29v-155h-29l-14 27h-251v-126h300l15 43h29v-155h-493v29l28 19v458l-28 19v29zM209 786l249 -160l-37 -41l-275 135z" />
    <glyph glyph-name="eacute" unicode="&#xe9;" horiz-adv-x="604" 
d="M50 554h486v-150h-31l-14 42h-292v-108h251l14 28h29v-155h-29l-14 27h-251v-126h300l15 43h29v-155h-493v29l28 19v458l-28 19v29zM455 717l-272 -134l-36 44l243 156z" />
    <glyph glyph-name="ecircumflex" unicode="&#xea;" horiz-adv-x="604" 
d="M50 554h486v-150h-31l-14 42h-292v-108h251l14 28h29v-155h-29l-14 27h-251v-126h300l15 43h29v-155h-493v29l28 19v458l-28 19v29zM337 754l149 -133l-41 -31l-141 94l-140 -93l-45 26l151 137h67z" />
    <glyph glyph-name="edieresis" unicode="&#xeb;" horiz-adv-x="604" 
d="M50 554h486v-150h-31l-14 42h-292v-108h251l14 28h29v-155h-29l-14 27h-251v-126h300l15 43h29v-155h-493v29l28 19v458l-28 19v29zM166 733q34 0 53 -19.5t19 -49.5q0 -31 -19 -49.5t-53 -18.5q-31 0 -50 18.5t-19 49.5q0 30 19 49.5t50 19.5zM434 733q31 0 52 -19.5
t21 -49.5q0 -31 -21 -49.5t-52 -18.5q-30 0 -49.5 18.5t-19.5 49.5q0 30 19.5 49.5t49.5 19.5z" />
    <glyph glyph-name="igrave" unicode="&#xec;" horiz-adv-x="261" 
d="M41 0v29l28 19v458l-28 19v29h176v-29l-27 -19v-458l27 -19v-29h-176zM39 786l249 -160l-37 -41l-275 135z" />
    <glyph glyph-name="iacute" unicode="&#xed;" horiz-adv-x="261" 
d="M41 0v29l28 19v458l-28 19v29h176v-29l-27 -19v-458l27 -19v-29h-176zM286 717l-272 -134l-36 44l243 156z" />
    <glyph glyph-name="icircumflex" unicode="&#xee;" horiz-adv-x="261" 
d="M41 0v29l28 19v458l-28 19v29h176v-29l-27 -19v-458l27 -19v-29h-176zM167 754l149 -133l-41 -31l-141 94l-140 -93l-45 26l151 137h67z" />
    <glyph glyph-name="idieresis" unicode="&#xef;" horiz-adv-x="261" 
d="M41 0v29l28 19v458l-28 19v29h176v-29l-27 -19v-458l27 -19v-29h-176zM-4 733q34 0 53 -19.5t19 -49.5q0 -31 -19 -49.5t-53 -18.5q-31 0 -50 18.5t-19 49.5q0 30 19 49.5t50 19.5zM264 733q31 0 52 -19.5t21 -49.5q0 -31 -21 -49.5t-52 -18.5q-30 0 -49.5 18.5
t-19.5 49.5q0 30 19.5 49.5t49.5 19.5z" />
    <glyph glyph-name="ntilde" unicode="&#xf1;" horiz-adv-x="712" 
d="M51 0v29l28 19v458l-28 19v29h142l323 -375v326l-26 20v29h173v-29l-27 -19v-506h-131l-307 360v-312l27 -19v-29h-174zM435 588q-22 0 -43 8t-41.5 18t-39.5 18t-37 8q-16 0 -29.5 -10t-20.5 -26l-65 35q23 45 57 64.5t61 19.5q24 0 42.5 -8t36.5 -18.5t37.5 -18.5
t46.5 -8q16 0 29.5 10t23.5 28l60 -36q-30 -42 -61.5 -63t-56.5 -21z" />
    <glyph glyph-name="ograve" unicode="&#xf2;" 
d="M375 450q-45 0 -84 -14.5t-66.5 -39t-43.5 -57t-16 -69.5t16 -67.5t43.5 -53.5t66.5 -36t84 -13t83 12t66 34.5t44.5 53.5t16.5 70q0 37 -16 69.5t-44 57t-66.5 39t-83.5 14.5zM375 564q73 0 135 -23.5t106.5 -63t70 -93.5t25.5 -114q0 -64 -25.5 -116t-70 -89
t-106.5 -57.5t-135 -20.5q-71 0 -133 20t-107 57.5t-71 89.5t-26 116q0 60 24 114t68.5 93.5t106.5 63t138 23.5zM282 786l249 -160l-37 -41l-275 135z" />
    <glyph glyph-name="oacute" unicode="&#xf3;" 
d="M375 450q-45 0 -84 -14.5t-66.5 -39t-43.5 -57t-16 -69.5t16 -67.5t43.5 -53.5t66.5 -36t84 -13t83 12t66 34.5t44.5 53.5t16.5 70q0 37 -16 69.5t-44 57t-66.5 39t-83.5 14.5zM375 564q73 0 135 -23.5t106.5 -63t70 -93.5t25.5 -114q0 -64 -25.5 -116t-70 -89
t-106.5 -57.5t-135 -20.5q-71 0 -133 20t-107 57.5t-71 89.5t-26 116q0 60 24 114t68.5 93.5t106.5 63t138 23.5zM529 717l-272 -134l-36 44l243 156z" />
    <glyph glyph-name="ocircumflex" unicode="&#xf4;" 
d="M375 450q-45 0 -84 -14.5t-66.5 -39t-43.5 -57t-16 -69.5t16 -67.5t43.5 -53.5t66.5 -36t84 -13t83 12t66 34.5t44.5 53.5t16.5 70q0 37 -16 69.5t-44 57t-66.5 39t-83.5 14.5zM375 564q73 0 135 -23.5t106.5 -63t70 -93.5t25.5 -114q0 -64 -25.5 -116t-70 -89
t-106.5 -57.5t-135 -20.5q-71 0 -133 20t-107 57.5t-71 89.5t-26 116q0 60 24 114t68.5 93.5t106.5 63t138 23.5zM410 754l149 -133l-41 -31l-141 94l-140 -93l-45 26l151 137h67z" />
    <glyph glyph-name="otilde" unicode="&#xf5;" 
d="M375 450q-45 0 -84 -14.5t-66.5 -39t-43.5 -57t-16 -69.5t16 -67.5t43.5 -53.5t66.5 -36t84 -13t83 12t66 34.5t44.5 53.5t16.5 70q0 37 -16 69.5t-44 57t-66.5 39t-83.5 14.5zM375 564q73 0 135 -23.5t106.5 -63t70 -93.5t25.5 -114q0 -64 -25.5 -116t-70 -89
t-106.5 -57.5t-135 -20.5q-71 0 -133 20t-107 57.5t-71 89.5t-26 116q0 60 24 114t68.5 93.5t106.5 63t138 23.5zM454 588q-22 0 -43 8t-41.5 18t-39.5 18t-37 8q-16 0 -29.5 -10t-20.5 -26l-65 35q23 45 57 64.5t61 19.5q24 0 42.5 -8t36.5 -18.5t37.5 -18.5t46.5 -8
q16 0 29.5 10t23.5 28l60 -36q-30 -42 -61.5 -63t-56.5 -21z" />
    <glyph glyph-name="odieresis" unicode="&#xf6;" 
d="M375 450q-45 0 -84 -14.5t-66.5 -39t-43.5 -57t-16 -69.5t16 -67.5t43.5 -53.5t66.5 -36t84 -13t83 12t66 34.5t44.5 53.5t16.5 70q0 37 -16 69.5t-44 57t-66.5 39t-83.5 14.5zM375 564q73 0 135 -23.5t106.5 -63t70 -93.5t25.5 -114q0 -64 -25.5 -116t-70 -89
t-106.5 -57.5t-135 -20.5q-71 0 -133 20t-107 57.5t-71 89.5t-26 116q0 60 24 114t68.5 93.5t106.5 63t138 23.5zM239 733q34 0 53 -19.5t19 -49.5q0 -31 -19 -49.5t-53 -18.5q-31 0 -50 18.5t-19 49.5q0 30 19 49.5t50 19.5zM507 733q31 0 52 -19.5t21 -49.5
q0 -31 -21 -49.5t-52 -18.5q-30 0 -49.5 18.5t-19.5 49.5q0 30 19.5 49.5t49.5 19.5z" />
    <glyph glyph-name="oslash" unicode="&#xf8;" 
d="M529 630l90 -44l-46 -76q64 -41 101.5 -103t37.5 -137q0 -64 -25.5 -116t-70 -89t-106.5 -57.5t-135 -20.5q-60 0 -113 14l-34 -56l-92 44l32 52q-60 37 -95 95.5t-35 133.5q0 60 24 114t68.5 93.5t106.5 63t138 23.5q54 0 105 -14zM375 100q45 0 83 12t66 34.5
t44.5 53.5t16.5 70q0 41 -20 77t-54 61l-186 -304q12 -2 24.5 -3t25.5 -1zM375 450q-45 0 -84 -14.5t-66.5 -39t-43.5 -57t-16 -69.5q0 -39 17.5 -71t47.5 -55l187 302q-19 4 -42 4z" />
    <glyph glyph-name="ugrave" unicode="&#xf9;" horiz-adv-x="695" 
d="M477 554h177v-29l-28 -19v-277q0 -68 -26.5 -114.5t-67 -74.5t-89.5 -40t-95 -12q-47 0 -96 12t-89.5 40t-67 74.5t-26.5 114.5v277l-28 19v29h177v-29l-28 -19v-272q0 -63 43 -98.5t115 -35.5q71 0 113.5 35.5t42.5 98.5v272l-27 19v29zM254 786l249 -160l-37 -41
l-275 135z" />
    <glyph glyph-name="uacute" unicode="&#xfa;" horiz-adv-x="695" 
d="M477 554h177v-29l-28 -19v-277q0 -68 -26.5 -114.5t-67 -74.5t-89.5 -40t-95 -12q-47 0 -96 12t-89.5 40t-67 74.5t-26.5 114.5v277l-28 19v29h177v-29l-28 -19v-272q0 -63 43 -98.5t115 -35.5q71 0 113.5 35.5t42.5 98.5v272l-27 19v29zM502 717l-272 -134l-36 44
l243 156z" />
    <glyph glyph-name="ucircumflex" unicode="&#xfb;" horiz-adv-x="695" 
d="M477 554h177v-29l-28 -19v-277q0 -68 -26.5 -114.5t-67 -74.5t-89.5 -40t-95 -12q-47 0 -96 12t-89.5 40t-67 74.5t-26.5 114.5v277l-28 19v29h177v-29l-28 -19v-272q0 -63 43 -98.5t115 -35.5q71 0 113.5 35.5t42.5 98.5v272l-27 19v29zM382 754l149 -133l-41 -31
l-141 94l-140 -93l-45 26l151 137h67z" />
    <glyph glyph-name="udieresis" unicode="&#xfc;" horiz-adv-x="695" 
d="M477 554h177v-29l-28 -19v-277q0 -68 -26.5 -114.5t-67 -74.5t-89.5 -40t-95 -12q-47 0 -96 12t-89.5 40t-67 74.5t-26.5 114.5v277l-28 19v29h177v-29l-28 -19v-272q0 -63 43 -98.5t115 -35.5q71 0 113.5 35.5t42.5 98.5v272l-27 19v29zM211 733q34 0 53 -19.5t19 -49.5
q0 -31 -19 -49.5t-53 -18.5q-31 0 -50 18.5t-19 49.5q0 30 19 49.5t50 19.5zM479 733q31 0 52 -19.5t21 -49.5q0 -31 -21 -49.5t-52 -18.5q-30 0 -49.5 18.5t-19.5 49.5q0 30 19.5 49.5t49.5 19.5z" />
    <glyph glyph-name="ydieresis" unicode="&#xff;" horiz-adv-x="661" 
d="M246 0v29l29 20v167l-227 290l-40 19v29h203v-29l-15 -19l140 -182l137 182l-16 19v29h197v-29l-41 -19l-217 -291v-167l27 -19v-29h-177zM195 733q34 0 53 -19.5t19 -49.5q0 -31 -19 -49.5t-53 -18.5q-31 0 -50 18.5t-19 49.5q0 30 19 49.5t50 19.5zM463 733
q31 0 52 -19.5t21 -49.5q0 -31 -21 -49.5t-52 -18.5q-30 0 -49.5 18.5t-19.5 49.5q0 30 19.5 49.5t49.5 19.5z" />
    <glyph glyph-name="asciitilde" unicode="~" horiz-adv-x="588" 
d="M398 267q-28 0 -56.5 10t-55.5 22t-52.5 22t-49.5 10q-20 0 -38.5 -12t-27.5 -32l-86 43q15 27 34.5 46.5t41 32t42.5 18.5t38 6q33 0 58 -10t48.5 -22t49.5 -22t61 -10q21 0 39.5 12t30.5 33l81 -43q-40 -52 -82 -78t-76 -26z" />
    <glyph glyph-name="germandbls" unicode="&#xdf;" horiz-adv-x="1188" 
d="M166 190l17 -26l-9 -27q10 -9 21.5 -18.5t27 -16t34.5 -10.5t45 -4q15 0 36.5 3t41.5 10t34.5 19t14.5 29q0 23 -27.5 38t-67.5 27.5t-87 25t-86 31.5q-40 19 -63 47.5t-23 74.5q0 45 18.5 77.5t50.5 53t72.5 30.5t85.5 10q58 0 101.5 -9.5t90.5 -30.5l28 16l27 -17
l-97 -149l-27 18l3 30q-23 17 -56.5 27.5t-69.5 10.5q-16 0 -34 -4t-34 -11t-26.5 -17t-10.5 -23q0 -18 22.5 -31t56.5 -24t74 -22t74 -25q27 -10 50.5 -24t40.5 -32t26.5 -41.5t9.5 -53.5q0 -45 -23 -76.5t-59 -50.5t-79.5 -28t-86.5 -9q-66 0 -118.5 16.5t-99.5 48.5
l-29 -7l-20 22zM760 190l17 -26l-9 -27q10 -9 21.5 -18.5t27 -16t34.5 -10.5t45 -4q15 0 36.5 3t41.5 10t34.5 19t14.5 29q0 23 -27.5 38t-67.5 27.5t-87 25t-86 31.5q-40 19 -63 47.5t-23 74.5q0 45 18.5 77.5t50.5 53t72.5 30.5t85.5 10q58 0 101.5 -9.5t90.5 -30.5l28 16
l27 -17l-97 -149l-27 18l3 30q-23 17 -56.5 27.5t-69.5 10.5q-16 0 -34 -4t-34 -11t-26.5 -17t-10.5 -23q0 -18 22.5 -31t56.5 -24t74 -22t74 -25q27 -10 50.5 -24t40.5 -32t26.5 -41.5t9.5 -53.5q0 -45 -23 -76.5t-59 -50.5t-79.5 -28t-86.5 -9q-66 0 -118.5 16.5
t-99.5 48.5l-29 -7l-20 22z" />
    <glyph glyph-name="oe" unicode="&#x153;" horiz-adv-x="1092" 
d="M1049 554v-150h-30l-15 42h-292v-105h252l13 28h30v-161h-30l-13 27h-252v-123h301l14 43h30v-155h-466v45q-43 -28 -97.5 -43t-118.5 -15q-71 0 -133 20t-107 57.5t-71 89.5t-26 116q0 60 24 114t68.5 93.5t106.5 63t138 23.5q64 0 118.5 -18t97.5 -49v57h458zM375 450
q-45 0 -84 -14.5t-66.5 -39t-43.5 -57t-16 -69.5t16 -67.5t43.5 -53.5t66.5 -36t84 -13t83 12t66 34.5t44.5 53.5t16.5 70q0 37 -16 69.5t-44 57t-66.5 39t-83.5 14.5z" />
    <glyph glyph-name="a" unicode="a" horiz-adv-x="734" 
d="M362 418l-89 -183h178zM421 554l268 -505l38 -20v-29h-199v28l20 20l-38 85h-284l-49 -85l17 -20v-28h-186v30l36 18l262 506h115z" />
    <glyph glyph-name="b" unicode="b" horiz-adv-x="637" 
d="M350 337q46 0 68.5 18t22.5 38t-22.5 36.5t-68.5 16.5h-150v-109h150zM380 112q49 0 73.5 19t24.5 41q0 11 -6 22t-18.5 21t-31 15.5t-42.5 5.5h-180v-124h180zM51 0v29l27 19v458l-27 19v29h297q98 0 154.5 -40t56.5 -112q0 -30 -12.5 -56t-29.5 -43q32 -17 56 -49.5
t24 -83.5q0 -43 -19.5 -75.5t-50.5 -53t-69 -31t-74 -10.5h-333z" />
    <glyph glyph-name="c" unicode="c" horiz-adv-x="693" 
d="M386 564q43 0 77 -6.5t60.5 -15.5t44.5 -19.5t28 -18.5l28 12l23 -21l-113 -135l-24 21l7 29q-33 25 -65.5 34t-77.5 9q-46 0 -84 -14.5t-66.5 -39t-44 -57.5t-15.5 -70q0 -36 16.5 -66.5t44.5 -53.5t66.5 -36.5t82.5 -13.5q63 0 96 10.5t52 25.5l-6 32l24 17l112 -134
l-21 -19l-33 13q-28 -14 -53 -25t-51 -19t-54.5 -11.5t-65.5 -3.5q-71 0 -132.5 20t-107 57t-71.5 89t-26 116t22.5 118t66 92.5t109 61t151.5 22.5z" />
    <glyph glyph-name="d" unicode="d" horiz-adv-x="708" 
d="M200 446v-334h138q48 0 86.5 11.5t65 33.5t41 51.5t14.5 66.5q0 35 -13 66t-38.5 55t-64.5 37t-91 13h-138zM51 554h285q85 0 148 -21t104 -58t61 -88t20 -111q0 -61 -23.5 -112t-67 -87.5t-105 -56.5t-137.5 -20h-285v29l27 19v458l-27 19v29z" />
    <glyph glyph-name="e" unicode="e" horiz-adv-x="604" 
d="M50 554h486v-150h-31l-14 42h-292v-108h251l14 28h29v-155h-29l-14 27h-251v-126h300l15 43h29v-155h-493v29l28 19v458l-28 19v29z" />
    <glyph glyph-name="f" unicode="f" horiz-adv-x="559" 
d="M50 554h483v-150h-31l-14 42h-289v-127h249l14 29h30v-157h-30l-14 29h-249v-172l28 -19v-29h-177v29l27 19v458l-27 19v29z" />
    <glyph glyph-name="g" unicode="g" horiz-adv-x="699" 
d="M516 212h-141l-13 -33h-30v135h306v-222q-19 -27 -49.5 -46.5t-66.5 -32.5t-75 -19t-75 -6q-73 0 -134 20.5t-106 58t-69.5 90.5t-24.5 119q0 60 23 112.5t65 91t104 61.5t141 23q73 0 126.5 -15t104.5 -46l29 13l23 -22l-114 -135l-24 22l7 29q-22 17 -61 28.5t-99 11.5
q-48 0 -85 -14t-62.5 -37.5t-39 -55t-13.5 -67.5q0 -43 18 -75.5t47 -54.5t68.5 -33.5t82.5 -11.5q9 0 28.5 1.5t41 4.5t41 10t26.5 17v78z" />
    <glyph glyph-name="h" unicode="h" horiz-adv-x="692" 
d="M465 0v29l28 19v181h-293v-181l28 -19v-29h-177v29l28 19v458l-28 19v29h177v-29l-28 -19v-162h293v162l-28 19v29h176v-29l-28 -19v-458l28 -19v-29h-176z" />
    <glyph glyph-name="i" unicode="i" horiz-adv-x="261" 
d="M41 0v29l28 19v458l-28 19v29h176v-29l-27 -19v-458l27 -19v-29h-176z" />
    <glyph glyph-name="j" unicode="j" horiz-adv-x="521" 
d="M139 178l20 -24l-8 -28q22 -15 42.5 -20.5t39.5 -5.5q13 0 29.5 4t32 13t26.5 23.5t11 34.5v331l-28 19v29h177v-29l-28 -19v-304q0 -60 -18 -101t-48 -66t-68.5 -36t-79.5 -11q-30 0 -53.5 3.5t-44 11t-40 17.5t-41.5 21l-27 -9l-22 24z" />
    <glyph glyph-name="k" unicode="k" horiz-adv-x="679" 
d="M51 0v29l28 19v457l-28 20v29h176v-29l-27 -20v-182l221 186l-16 16v29h214v-29l-49 -19l-197 -162l231 -296l47 -19v-29h-219v26l29 20l-166 220l-95 -73v-145l27 -19v-29h-176z" />
    <glyph glyph-name="l" unicode="l" horiz-adv-x="542" 
d="M50 0v29l27 19v458l-27 19v29h177v-29l-28 -19v-394h284l14 43h30v-155h-477z" />
    <glyph glyph-name="m" unicode="m" horiz-adv-x="837" 
d="M52 0v29l28 19v458l-28 19v29h168l199 -382l198 382h168v-29l-27 -19v-458l27 -19v-29h-172v29l28 19v305l-185 -353h-75l-184 353v-305l27 -19v-29h-172z" />
    <glyph glyph-name="n" unicode="n" horiz-adv-x="712" 
d="M51 0v29l28 19v458l-28 19v29h142l323 -375v326l-26 20v29h173v-29l-27 -19v-506h-131l-307 360v-312l27 -19v-29h-174z" />
    <glyph glyph-name="o" unicode="o" 
d="M375 450q-45 0 -84 -14.5t-66.5 -39t-43.5 -57t-16 -69.5t16 -67.5t43.5 -53.5t66.5 -36t84 -13t83 12t66 34.5t44.5 53.5t16.5 70q0 37 -16 69.5t-44 57t-66.5 39t-83.5 14.5zM375 564q73 0 135 -23.5t106.5 -63t70 -93.5t25.5 -114q0 -64 -25.5 -116t-70 -89
t-106.5 -57.5t-135 -20.5q-71 0 -133 20t-107 57.5t-71 89.5t-26 116q0 60 24 114t68.5 93.5t106.5 63t138 23.5z" />
    <glyph glyph-name="p" unicode="p" horiz-adv-x="581" 
d="M335 298q49 0 81 17t32 58q0 39 -32.5 56t-80.5 17h-137v-148h137zM50 0v29l27 20v457l-27 19v29h286q110 0 169 -43.5t59 -137.5q0 -47 -18 -81.5t-49.5 -57.5t-75.5 -34t-96 -11h-127v-141l28 -19v-29h-176z" />
    <glyph glyph-name="q" unicode="q" horiz-adv-x="780" 
d="M363 450q-46 0 -84.5 -14.5t-66.5 -39t-43.5 -57t-15.5 -69.5t15.5 -67.5t43.5 -53.5t66.5 -36t84.5 -13q44 0 82 12t66.5 34.5t44 53.5t15.5 70q0 37 -15.5 69.5t-43.5 57t-66.5 39t-82.5 14.5zM363 564q73 0 135 -23.5t106.5 -63t70 -93.5t25.5 -114q0 -53 -18.5 -98.5
t-51.5 -82.5l59 -53l28 12l24 -23l-120 -130l-22 21l7 31l-77 71q-74 -31 -166 -31q-72 0 -133.5 20t-106.5 57.5t-71 89.5t-26 116q0 60 24 114t68 93.5t106 63t139 23.5z" />
    <glyph glyph-name="r" unicode="r" horiz-adv-x="687" 
d="M199 446v-148h170q45 0 75 18.5t30 56.5q0 36 -30 54.5t-75 18.5h-170zM51 554h337q98 0 151.5 -48t53.5 -133q0 -56 -29 -95t-77 -60l125 -170l39 -19v-29h-197v29l14 19l-96 141h-173v-141l29 -19v-29h-177v29l27 19v458l-27 19v29z" />
    <glyph glyph-name="s" unicode="s" horiz-adv-x="594" 
d="M166 190l17 -26l-9 -27q10 -9 21.5 -18.5t27 -16t34.5 -10.5t45 -4q15 0 36.5 3t41.5 10t34.5 19t14.5 29q0 23 -27.5 38t-67.5 27.5t-87 25t-86 31.5q-40 19 -63 47.5t-23 74.5q0 45 18.5 77.5t50.5 53t72.5 30.5t85.5 10q58 0 101.5 -9.5t90.5 -30.5l28 16l27 -17
l-97 -149l-27 18l3 30q-23 17 -56.5 27.5t-69.5 10.5q-16 0 -34 -4t-34 -11t-26.5 -17t-10.5 -23q0 -18 22.5 -31t56.5 -24t74 -22t74 -25q27 -10 50.5 -24t40.5 -32t26.5 -41.5t9.5 -53.5q0 -45 -23 -76.5t-59 -50.5t-79.5 -28t-86.5 -9q-66 0 -118.5 16.5t-99.5 48.5
l-29 -7l-20 22z" />
    <glyph glyph-name="t" unicode="t" horiz-adv-x="559" 
d="M192 0v29l26 19v398h-149l-23 -43h-30l9 151h506l10 -151h-30l-24 43h-147v-398l27 -19v-29h-175z" />
    <glyph glyph-name="u" unicode="u" horiz-adv-x="695" 
d="M477 554h177v-29l-28 -19v-277q0 -68 -26.5 -114.5t-67 -74.5t-89.5 -40t-95 -12q-47 0 -96 12t-89.5 40t-67 74.5t-26.5 114.5v277l-28 19v29h177v-29l-28 -19v-272q0 -63 43 -98.5t115 -35.5q71 0 113.5 35.5t42.5 98.5v272l-27 19v29z" />
    <glyph glyph-name="v" unicode="v" horiz-adv-x="657" 
d="M366 0h-76l-246 505l-36 20v29h195v-29l-21 -19l149 -322l148 322l-19 19v29h189v-29l-37 -19z" />
    <glyph glyph-name="w" unicode="w" horiz-adv-x="993" 
d="M207 554v-29l-22 -19l114 -308l145 356h119l144 -356l108 308l-23 19v29h193v-29l-34 -19l-203 -506h-87l-160 377l-161 -377h-96l-204 506l-32 19v29h199z" />
    <glyph glyph-name="x" unicode="x" horiz-adv-x="732" 
d="M18 0v29l41 19l232 234l-222 224l-44 19v29h221v-29l-14 -19l138 -152l139 152l-13 19v29h211v-29l-43 -19l-225 -224l234 -234l40 -19v-29h-216v29l13 19l-146 157l-146 -157l13 -19v-29h-213z" />
    <glyph glyph-name="y" unicode="y" horiz-adv-x="661" 
d="M246 0v29l29 20v167l-227 290l-40 19v29h203v-29l-15 -19l140 -182l137 182l-16 19v29h197v-29l-41 -19l-217 -291v-167l27 -19v-29h-177z" />
    <glyph glyph-name="z" unicode="z" horiz-adv-x="633" 
d="M55 97l326 342h-261l-24 -42h-30l10 157h464l32 -81l-336 -354h277l13 42h31v-161h-480z" />
    <glyph glyph-name="perthousand" unicode="&#x2030;" horiz-adv-x="1172" 
d="M801 166q0 38 13.5 71t37 57.5t54 38.5t66.5 14q34 0 65 -14t55 -38.5t37 -57.5t13 -71q0 -36 -12.5 -68t-34.5 -55.5t-53.5 -38t-69.5 -14.5t-69.5 14.5t-53.5 38t-35 55.5t-13 68zM1068 166q0 22 -6.5 43t-18 37t-29.5 25.5t-42 9.5t-41.5 -9.5t-30 -25.5t-18.5 -37
t-6 -43q0 -21 7 -41t19 -36t29.5 -25t40.5 -9q22 0 39.5 9t29.5 25t19.5 36t7.5 41zM423 166q0 38 13.5 71t37 57.5t54.5 38.5t67 14q34 0 65 -14t54.5 -38.5t37 -57.5t13.5 -71q0 -36 -12.5 -68t-34.5 -55.5t-53.5 -38t-69.5 -14.5t-70 14.5t-54 38t-35 55.5t-13 68z
M48 574q0 38 13.5 70.5t37 56.5t54 37.5t67.5 13.5q33 0 64.5 -13.5t55 -37.5t37 -56.5t13.5 -70.5q0 -36 -12.5 -67t-35 -55t-54 -38t-68.5 -14q-39 0 -70.5 14t-53.5 38t-35 55t-13 67zM99 0l503 745h100l-507 -745h-96zM690 166q0 22 -6 43t-17.5 37t-30 25.5t-41.5 9.5
q-24 0 -41.5 -9.5t-30 -25.5t-19 -37t-6.5 -43q0 -21 7.5 -41t19.5 -36t29.5 -25t40.5 -9q21 0 39 9t30 25t19 36t7 41zM314 574q0 22 -6 42.5t-17.5 35.5t-29 23.5t-41.5 8.5q-49 0 -72.5 -32.5t-23.5 -77.5q0 -21 7 -40.5t19 -34.5t30.5 -24t39.5 -9t38 9t29.5 24
t19.5 34.5t7 40.5z" />
    <glyph glyph-name="uni007F" horiz-adv-x="480" 
 />
    <glyph glyph-name="B" unicode="B" horiz-adv-x="821" 
d="M49 0v29l38 19v647l-38 19v29h399q66 0 117.5 -13.5t87.5 -39t55.5 -62t19.5 -83.5t-20 -83.5t-48 -56.5q24 -10 45.5 -26t38 -38.5t26.5 -52t10 -65.5q0 -57 -25.5 -98.5t-67 -69.5t-91.5 -41.5t-98 -13.5h-449zM492 130q38 0 66 8t46.5 21.5t28 30.5t9.5 36
q0 18 -9.5 36t-28 32.5t-46.5 23.5t-66 9h-263v-197h263zM452 442q35 0 61 8t43 21t25 29t8 32t-8 31.5t-25 28t-43 19.5t-61 7h-223v-176h223z" />
    <glyph glyph-name="C" unicode="C" horiz-adv-x="900" 
d="M187 364q0 -52 23 -97.5t64 -79t96.5 -53t121.5 -19.5q46 0 81 5.5t61 13.5t44.5 18.5t31.5 22.5l-9 42l22 17l140 -167l-21 -19l-40 18q-39 -20 -73.5 -36t-71 -26.5t-77 -15.5t-88.5 -5q-96 0 -179.5 27t-144 76.5t-96 119.5t-35.5 155q0 82 30.5 154t90 125.5
t148.5 84.5t207 31q52 0 99.5 -11.5t85.5 -26t63.5 -28.5t34.5 -20l38 15l22 -19l-141 -167l-22 19l10 43q-25 19 -49 31.5t-49 20t-53 11t-60 3.5q-68 0 -123.5 -20.5t-96 -56t-63 -83.5t-22.5 -103z" />
    <glyph glyph-name="glyph202" horiz-adv-x="500" 
 />
    <glyph glyph-name="glyph202" horiz-adv-x="500" 
 />
    <glyph glyph-name="uni000D" unicode="&#xd;" horiz-adv-x="500" 
 />
    <glyph glyph-name="mu" unicode="&#xb5;" horiz-adv-x="695" 
d="M41 -75v29l28 19v533l-28 19v29h177v-29l-28 -19v-172q0 -63 43 -98.5t115 -35.5t114 35.5t42 98.5v172l-27 19v29h177v-29l-28 -19v-177q0 -68 -26.5 -114.5t-67 -74.5t-89.5 -40t-95 -12q-38 0 -80.5 8t-77.5 27v-150l27 -19v-29h-176z" />
    <glyph glyph-name="logicalnot" unicode="&#xac;" horiz-adv-x="585" 
d="M55 225v107h470v-253h-107v146h-363z" />
    <glyph glyph-name="florin" unicode="&#x192;" horiz-adv-x="2098" 
d="M45 223h121v50h-32v156h32v55h-32v66h780v-82q-14 23 -43 23q-82 0 -82 -136q0 -135 85 -135q26 0 55 33v-30h43v327h664v-46h61v46h356v-451h-2008v124zM1601 223v167q0 96 -84 96q-42 0 -55 -43q-16 43 -49 43q-32 0 -48 -43v41h-57v-211h-34v-50h124v50h-33v108
q0 41 33 41q27 0 27 -41v-158h91v50h-34v108q0 39 34 39q26 0 26 -39v-158h59zM390 140h58v99q13 -21 43 -21q82 0 82 135t-86 135q-25 0 -55 -36v32h-42v-344zM779 351q0 139 -98 139q-96 0 -96 -139q0 -135 96 -135q98 0 98 135zM235 140h37q98 11 98 126v218h-59v-161
q0 -47 -35 -47q-34 0 -34 47v161h-57v-151q0 -113 82 -113q24 0 44 14q0 -41 -49 -41h-27v-53zM1151 484h-26v-41q-20 47 -59 47q-76 0 -76 -77q0 -48 39 -64q-41 -17 -41 -58q0 -38 21 -56.5t59 -18.5q39 0 61 23t22 71h-26q-4 -34 -45 -34q-35 0 -35 25q0 32 35 32h18v32
h-18q-35 0 -35 30q0 29 35 29q31 0 45 -36h26v96zM1881 481h-28v-38q-21 47 -53 47q-89 0 -89 -139q0 -133 91 -133q63 0 79 103h-28q-5 -41 -44 -41q-41 0 -41 71q0 73 41 73q39 0 44 -48h28v105zM1249 273h-25v115q0 36 25 36q10 0 21 -11l20 59q-13 13 -30 14
q-37 0 -55 -43v41h-34v-261h78v50zM1610 484v-55h26v-206h61v261h-87zM443 395q10 27 37 27q37 0 37 -67q0 -77 -39 -77q-24 0 -35 29v88zM720 351q0 -71 -39 -71q-37 0 -37 71q0 73 37 73q39 0 39 -73zM917 310q-10 -25 -35 -25q-38 0 -38 68q0 76 39 76q24 0 34 -28v-91z
M45 273v156h36v-156h-36zM45 484v66h36v-66h-36z" />
    <glyph glyph-name="currency" unicode="&#xa4;" horiz-adv-x="510" 
d="M97 383q0 -27 12.5 -51t33.5 -42.5t49 -29t60 -10.5q33 0 62 10.5t50.5 29t34.5 42.5t13 51q0 26 -13 49.5t-34.5 41t-50.5 28t-62 10.5q-32 0 -60 -10.5t-49 -28t-33.5 -41t-12.5 -49.5zM37 383q0 39 17 73t46 60t68.5 41t83.5 15q45 0 85 -15t70 -41t47.5 -60t17.5 -73
t-17.5 -74t-47.5 -61.5t-70 -42t-85 -15.5q-44 0 -83.5 15.5t-68.5 42t-46 61.5t-17 74z" />
    <glyph glyph-name="Euro" unicode="&#x20ac;" horiz-adv-x="927" 
d="M613 756q75 0 140.5 -15t120.5 -42l-75 -116q-68 41 -186 41q-90 0 -158 -35t-106 -94h397l-71 -110h-364q0 -39 6 -83v9h310l-68 -110h-182q41 -41 101.5 -65t134.5 -24q55 0 101.5 10t82.5 29l80 -117q-51 -22 -119 -36.5t-145 -14.5q-71 0 -135.5 15t-119.5 44.5
t-96.5 71t-67.5 92.5v-5h-145l38 110h76q-3 37 -3 74h-100l39 110h81v-5q23 58 62.5 107t95 84t125 55t150.5 20z" />
    <glyph glyph-name="Thorn" unicode="&#xde;" horiz-adv-x="711" 
d="M254 743v-29l-38 -19v-82h170q69 0 127 -14t100 -43.5t65.5 -74t23.5 -106.5q0 -61 -23.5 -107.5t-66 -78.5t-100 -47.5t-126.5 -15.5h-170v-78l38 -19v-29h-218v29l38 19v647l-38 19v29h218zM216 488v-231h182q37 0 68 7t53.5 21t35 36.5t12.5 53.5t-12.5 52.5t-35 35
t-53.5 19.5t-68 6h-182z" />
    <glyph glyph-name="Yacute" unicode="&#xdd;" horiz-adv-x="891" 
d="M342 0v29l38 19v242l-317 405l-53 19v29h257v-29l-24 -19l210 -279l206 279l-25 19v29h247v-29l-53 -19l-306 -406v-241l39 -19v-29h-219zM599 906l-272 -134l-36 44l243 156z" />
    <glyph glyph-name="Scaron" unicode="&#x160;" horiz-adv-x="760" 
d="M192 236l19 -22l-14 -40q17 -16 35 -28t39.5 -20.5t49.5 -13t68 -4.5q22 0 53.5 2.5t61.5 12t50.5 26t20.5 44.5q0 25 -17.5 43.5t-46.5 32.5t-67.5 25t-79.5 22.5t-83 24.5t-78 31q-26 12 -48.5 28t-38.5 35t-25 43t-9 54q0 58 25.5 101t68.5 70t98 40t115 13
q40 0 74.5 -3.5t67 -10.5t63.5 -17.5t64 -24.5l36 20l24 -16l-120 -184l-24 17l4 44q-40 20 -87 33.5t-101 13.5q-25 0 -54 -4.5t-53.5 -14t-40.5 -25t-16 -36.5q0 -30 29 -49.5t74 -35.5t101 -30.5t109 -35.5q36 -14 69 -31.5t57.5 -41.5t39 -55t14.5 -71
q0 -59 -29.5 -99.5t-77.5 -66.5t-106.5 -37.5t-114.5 -11.5q-91 0 -163.5 23.5t-136.5 68.5l-39 -11l-20 22zM346 779l-149 133l42 31l141 -94l140 93l44 -26l-151 -137h-67z" />
    <glyph glyph-name="Zcaron" unicode="&#x17d;" horiz-adv-x="797" 
d="M51 117l456 492h-388l-29 -58h-29l10 192h613l39 -98l-464 -506h420l19 58h29v-197h-649zM365 779l-149 133l42 31l141 -94l140 93l44 -26l-151 -137h-67z" />
    <glyph glyph-name="Eth" unicode="&#xd0;" horiz-adv-x="919" 
d="M36 307v108h51v280l-38 19v29h382q115 0 200 -28.5t140.5 -78t82 -118t26.5 -147.5q0 -83 -32 -151t-90.5 -117t-141.5 -76t-185 -27h-382v29l38 19v259h-51zM229 618v-203h191v-108h-191v-177h205q69 0 124.5 17t95 48.5t60.5 75t21 97.5q0 52 -19 97.5t-57 79.5
t-94 53.5t-131 19.5h-205z" />
    <glyph glyph-name="minus" unicode="&#x2212;" horiz-adv-x="475" 
d="M55 225v107h365v-107h-365z" />
    <glyph glyph-name="twosuperior" unicode="&#xb2;" horiz-adv-x="420" 
d="M195 535q15 10 30.5 21.5t28 23t20.5 22t8 20.5q0 20 -19 29t-48 9q-33 0 -55.5 -11.5t-41.5 -32.5l-69 50q28 36 69.5 60.5t98.5 24.5q70 0 112 -33t42 -91q0 -28 -9.5 -50t-25.5 -41.5t-38.5 -37.5t-49.5 -36q-8 -5 -12.5 -8t-7.5 -5.5t-7 -5t-12 -8.5h162v-88h-300
l-36 75z" />
    <glyph glyph-name="threesuperior" unicode="&#xb3;" horiz-adv-x="420" 
d="M89 463q37 -22 63 -30t57 -8q28 0 50.5 9t22.5 28q0 15 -12.5 23.5t-31.5 13t-44 5.5t-49 1v83q24 0 47 0.5t41 5t28.5 13t10.5 23.5q0 7 -6.5 13t-16 10t-21.5 5.5t-24 1.5q-31 0 -54.5 -10t-48.5 -31l-66 59q30 31 73.5 52t100.5 21q29 0 56.5 -7t48.5 -21.5t34 -36
t13 -50.5q0 -25 -6.5 -48t-29.5 -39q24 -12 39.5 -34.5t15.5 -58.5q0 -27 -15 -48.5t-37.5 -37t-49.5 -24t-53 -8.5q-56 0 -101.5 13t-81.5 41z" />
    <glyph glyph-name="onesuperior" unicode="&#xb9;" horiz-adv-x="248" 
d="M49 623l-40 74l123 46h59v-396h-88v296z" />
    <glyph glyph-name="onehalf" unicode="&#xbd;" horiz-adv-x="836" 
d="M620 188q16 12 31.5 23.5t28 22.5t20.5 22t8 20q0 20 -19 29.5t-49 9.5q-31 0 -54 -12t-43 -33l-70 50q29 35 71.5 59.5t96.5 24.5q72 0 114 -32.5t42 -90.5q0 -32 -12.5 -57.5t-34 -48t-51 -43.5t-63.5 -44h161v-88h-300l-37 77zM160 0h-96l545 743h93zM84 623l-41 74
l124 46h60v-396h-90v296z" />
    <glyph glyph-name="threequarters" unicode="&#xbe;" horiz-adv-x="905" 
d="M726 396h78v-240h58v-85h-58v-71h-89v71h-213l-29 60zM87 464q20 -12 35 -19.5t28.5 -12t27 -6t28.5 -1.5q27 0 50 9t23 28q0 15 -12.5 23.5t-32 13t-44 5.5t-49.5 1v83q25 0 48 0.5t41 5t28.5 13t10.5 23.5q0 7 -6.5 13t-16 10t-21.5 5.5t-24 1.5q-31 0 -54.5 -10
t-48.5 -31l-66 59q30 31 73.5 52t100.5 21q29 0 57 -7t49 -21.5t34 -36t13 -50.5q0 -25 -6.5 -48t-28.5 -39q23 -12 37.5 -34.5t14.5 -58.5q0 -27 -14 -48.5t-37 -37t-49.5 -24t-52.5 -8.5q-58 0 -103.5 13t-80.5 41zM617 156h98v107zM260 0h-96l545 743h93z" />
    <glyph glyph-name="onequarter" unicode="&#xbc;" horiz-adv-x="868" 
d="M695 396h78v-240h57v-85h-57v-71h-89v71h-212l-28 60zM183 0h-95l546 743h92zM82 623l-41 74l123 46h60v-396h-89v296zM587 156h97v107z" />
    <glyph glyph-name="multiply" unicode="&#xd7;" horiz-adv-x="492" 
d="M325 334q30 -26 63.5 -54t63.5 -53l-80 -67l-126 109q-33 -27 -66 -54.5t-66 -54.5l-77 65l130 108q-30 25 -62 52.5t-61 51.5l81 66l123 -104q30 25 61.5 51.5t62.5 51.5l77 -64z" />
    <glyph glyph-name="Lslash" unicode="&#x141;" horiz-adv-x="724" 
d="M40 0v29l39 19v218l-49 -16l-50 98l99 35v312l-39 19v29h219v-29l-38 -19v-263l181 63l50 -99l-231 -80v-186h415l20 57h28v-187h-644z" />
    <glyph glyph-name="brokenbar" unicode="&#xa6;" horiz-adv-x="203" 
d="M55 244h102v-470h-102v470zM157 428h-102v432h102v-432z" />
    <glyph glyph-name="uni00AD" unicode="&#xad;" horiz-adv-x="585" 
d="M55 225v107h474v-107h-474z" />
    <glyph glyph-name="eth" unicode="&#xf0;" horiz-adv-x="708" 
d="M51 554h285q85 0 148 -21t104 -58t61 -88t20 -111q0 -61 -23.5 -112t-67 -87.5t-105 -56.5t-137.5 -20h-285v29l27 19v177h-42v107h42v174l-27 19v29zM200 446v-114h200v-107h-200v-113h138q48 0 86.5 11.5t65 33.5t41 51.5t14.5 66.5q0 35 -13 66t-38.5 55t-64.5 37
t-91 13h-138z" />
    <glyph glyph-name="yacute" unicode="&#xfd;" horiz-adv-x="661" 
d="M246 0v29l29 20v167l-227 290l-40 19v29h203v-29l-15 -19l140 -182l137 182l-16 19v29h197v-29l-41 -19l-217 -291v-167l27 -19v-29h-177zM484 717l-272 -134l-36 44l243 156z" />
    <glyph glyph-name="thorn" unicode="&#xfe;" horiz-adv-x="581" 
d="M217 554v-29l-27 -19v-41h146q110 0 169 -44t59 -137q0 -47 -18 -82.5t-49.5 -59t-75.5 -35.5t-96 -12h-135v-47l27 -19v-29h-176v29l28 19v458l-28 19v29h176zM190 357v-149h145q49 0 81 17.5t32 58.5q0 39 -32.5 56t-80.5 17h-145z" />
    <glyph glyph-name="scaron" unicode="&#x161;" horiz-adv-x="594" 
d="M166 190l17 -26l-9 -27q10 -9 21.5 -18.5t27 -16t34.5 -10.5t45 -4q15 0 36.5 3t41.5 10t34.5 19t14.5 29q0 23 -27.5 38t-67.5 27.5t-87 25t-86 31.5q-40 19 -63 47.5t-23 74.5q0 45 18.5 77.5t50.5 53t72.5 30.5t85.5 10q58 0 101.5 -9.5t90.5 -30.5l28 16l27 -17
l-97 -149l-27 18l3 30q-23 17 -56.5 27.5t-69.5 10.5q-16 0 -34 -4t-34 -11t-26.5 -17t-10.5 -23q0 -18 22.5 -31t56.5 -24t74 -22t74 -25q27 -10 50.5 -24t40.5 -32t26.5 -41.5t9.5 -53.5q0 -45 -23 -76.5t-59 -50.5t-79.5 -28t-86.5 -9q-66 0 -118.5 16.5t-99.5 48.5
l-29 -7l-20 22zM263 590l-149 133l42 31l141 -94l140 93l44 -26l-151 -137h-67z" />
    <glyph glyph-name="zcaron" unicode="&#x17e;" horiz-adv-x="633" 
d="M55 97l326 342h-261l-24 -42h-30l10 157h464l32 -81l-336 -354h277l13 42h31v-161h-480zM282 590l-149 133l42 31l141 -94l140 93l44 -26l-151 -137h-67z" />
    <glyph glyph-name="lslash" unicode="&#x142;" horiz-adv-x="539" 
d="M50 0v29l27 19v146l-35 -12l-44 88l79 27v209l-27 19v29h177v-29l-28 -19v-166l108 39l44 -87l-152 -55v-125h284l14 43h30v-155h-477z" />
    </font>
</defs>
</svg>
